<?xml version="1.0" encoding="UTF-8" standalone="no"?>
<svg width="20px" height="20px" viewBox="0 0 20 20" version="1.1" xmlns="http://www.w3.org/2000/svg" xmlns:xlink="http://www.w3.org/1999/xlink">
    <!-- Generator: Sketch 40.3 (33839) - http://www.bohemiancoding.com/sketch -->
    <title>Combined Shape</title>
    <desc>Created with Sketch.</desc>
    <defs></defs>
    <g id="Exports" stroke="none" stroke-width="1" fill="none" fill-rule="evenodd">
        <g id="socialicon_twitter-copy" fill="#FFFFFF">
            <path d="M9.19999981,14.5 C8.94407749,14.5 8.68815517,14.4023689 8.49289303,14.2071068 L4.49289303,10.2071068 C4.10236874,9.81658249 4.10236874,9.18341751 4.49289303,8.79289322 C4.88341732,8.40236893 5.5165823,8.40236893 5.90710659,8.79289322 L9.19999981,12.0857864 L14.492893,6.79289322 C14.8834173,6.40236893 15.5165823,6.40236893 15.9071066,6.79289322 C16.2976309,7.18341751 16.2976309,7.81658249 15.9071066,8.20710678 L9.90710659,14.2071068 C9.71184444,14.4023689 9.45592213,14.5 9.19999981,14.5 Z M10,20 C15.5228475,20 20,15.5228475 20,10 C20,4.4771525 15.5228475,0 10,0 C4.4771525,0 0,4.4771525 0,10 C0,15.5228475 4.4771525,20 10,20 Z" id="Combined-Shape"></path>
        </g>
    </g>
</svg>