<?xml version="1.0" standalone="no"?>
<!DOCTYPE svg PUBLIC "-//W3C//DTD SVG 1.1//EN" "http://www.w3.org/Graphics/SVG/1.1/DTD/svg11.dtd" >
<svg xmlns="http://www.w3.org/2000/svg" xmlns:xlink="http://www.w3.org/1999/xlink" version="1.1">
<metadata>
Created by FontForge 20161003 at Fri Nov 18 05:40:14 2016
 By www-data
Copyright (c) 2014 by Grilli Type GmbH. All rights reserved.
</metadata>
<defs>
<font id="GTSectraDisplayTrialLightItalic" horiz-adv-x="0" >
  <font-face 
    font-family="GTSectraDisplayTrialLightItalic"
    font-weight="300"
    font-style="italic"
    font-stretch="normal"
    units-per-em="1000"
    panose-1="2 0 5 3 0 0 0 9 0 3"
    ascent="750"
    descent="-250"
    x-height="473"
    cap-height="700"
    bbox="-125 -255 1249 718"
    underline-thickness="50"
    underline-position="-125"
    slope="-12"
    unicode-range="U+0020-FB01"
  />
<missing-glyph horiz-adv-x="550" 
d="M422 342v158h-30v-158h30zM302 452v-110h30v110h-30zM50 0v700h450v-700h-450zM303 260h-30v-109h30v109zM295 453q-6 2 -11 2q-18 0 -31 -21v18h-27v-110h29v50q0 35 30 35q7 0 10 -1v27zM439 452v-110h30v110h-30zM89 307v-29h44v-127h30v127h44v29h-118zM427 151h29
v158h-29v-158zM266 234v28q-3 1 -10 1q-20 0 -30 -21v18h-28v-109h30v49q0 35 28 35q6 0 10 -1zM301 500v-29h32v29h-32zM438 500v-29h32v29h-32zM181 399q0 -12 -9 -22.5t-27 -10.5q-41 0 -41 53q0 25 10.5 40t29.5 15q24 0 31 -23l30 12q-14 39 -60 39q-35 0 -54.5 -23
t-19.5 -59q0 -35 18 -58t49 -23q32 0 43 20l4 -17h23v87h-67v-28h40v-2zM304 309h-32v-30h32v30zM376 342v158h-29v-158h29zM385 151h29q-3 15 -3 21v40q0 27 -10 39t-36 12q-49 0 -51 -37h29q1 15 21 15q18 0 18 -22q-32 -3 -50 -8q-21 -9 -21 -29q0 -16 10.5 -25t27.5 -9
q25 0 35 19q0 -11 1 -16zM382 201v-3q0 -28 -24 -28q-17 0 -17 13t23 16z" />
    <glyph glyph-name=".notdef" horiz-adv-x="550" 
d="M422 342v158h-30v-158h30zM302 452v-110h30v110h-30zM50 0v700h450v-700h-450zM303 260h-30v-109h30v109zM295 453q-6 2 -11 2q-18 0 -31 -21v18h-27v-110h29v50q0 35 30 35q7 0 10 -1v27zM439 452v-110h30v110h-30zM89 307v-29h44v-127h30v127h44v29h-118zM427 151h29
v158h-29v-158zM266 234v28q-3 1 -10 1q-20 0 -30 -21v18h-28v-109h30v49q0 35 28 35q6 0 10 -1zM301 500v-29h32v29h-32zM438 500v-29h32v29h-32zM181 399q0 -12 -9 -22.5t-27 -10.5q-41 0 -41 53q0 25 10.5 40t29.5 15q24 0 31 -23l30 12q-14 39 -60 39q-35 0 -54.5 -23
t-19.5 -59q0 -35 18 -58t49 -23q32 0 43 20l4 -17h23v87h-67v-28h40v-2zM304 309h-32v-30h32v30zM376 342v158h-29v-158h29zM385 151h29q-3 15 -3 21v40q0 27 -10 39t-36 12q-49 0 -51 -37h29q1 15 21 15q18 0 18 -22q-32 -3 -50 -8q-21 -9 -21 -29q0 -16 10.5 -25t27.5 -9
q25 0 35 19q0 -11 1 -16zM382 201v-3q0 -28 -24 -28q-17 0 -17 13t23 16z" />
    <glyph glyph-name=".null" 
 />
    <glyph glyph-name=".null" 
 />
    <glyph glyph-name="nonmarkingreturn" horiz-adv-x="333" 
 />
    <glyph glyph-name="space" unicode=" " horiz-adv-x="240" 
 />
    <glyph glyph-name="exclam" unicode="!" horiz-adv-x="211" 
d="M34 46l12 39l62 4l23 -4l-4 -46l-11 -40l-62 -4l-24 4z" />
    <glyph glyph-name="comma" unicode="," horiz-adv-x="218" 
d="M33 -138l-3 1l83 135l-35 -2l-21 4l4 48l13 37l58 4l26 -4l-3 -44l-14 -41z" />
    <glyph glyph-name="hyphen" unicode="-" horiz-adv-x="383" 
d="M50 267l3 20h305l-3 -20h-305z" />
    <glyph glyph-name="period" unicode="." horiz-adv-x="211" 
d="M34 46l12 39l62 4l23 -4l-4 -46l-11 -40l-62 -4l-24 4z" />
    <glyph glyph-name="zero" unicode="0" horiz-adv-x="508" 
d="M227 448l64 27q82 0 134.5 -57t52.5 -143q0 -186 -187 -263l-64 -27q-82 0 -134.5 57t-52.5 143q0 184 187 263zM251 0q162 91 162 260q0 81 -33.5 131t-112.5 69q-162 -81 -162 -260q0 -160 146 -200z" />
    <glyph glyph-name="one" unicode="1" horiz-adv-x="400" 
d="M232 435l-189 -70l-1 5l246 100h5l-80 -460l147 -5v-5h-355v5l153 5z" />
    <glyph glyph-name="two" unicode="2" horiz-adv-x="465" 
d="M87 60h358v-10l-19 -50h-431v6l217 146q93 68 125.5 116t32.5 97q0 38 -23.5 61.5t-67.5 27.5l-72 -22l-61 -137h-27l11 119l191 61q56 0 85 -28t29 -67q0 -53 -50 -106t-145 -117z" />
    <glyph glyph-name="three" unicode="3" horiz-adv-x="409" 
d="M137 431l-57 -126h-27l7 109l191 61q55 0 89 -31.5t34 -78.5q0 -129 -198 -201q77 -5 123 -44t46 -107q0 -46 -19.5 -83t-57 -64t-70.5 -43t-82 -35l-86 -33h-75l12 65h213q101 65 101 170q0 56 -41.5 97.5t-135.5 41.5l-1 6l48 22q79 37 119 80t40 107q0 43 -26 74.5
t-68 35.5z" />
    <glyph glyph-name="four" unicode="4" horiz-adv-x="513" 
d="M392 246l-41 -232h142v-10h-144l-41 -234h-57l41 234h-283l-4 9l382 457h73l-1 -5l-440 -451h275l35 199l58 33h5z" />
    <glyph glyph-name="five" unicode="5" horiz-adv-x="451" 
d="M119 410l-86 -275l150 100q53 0 90 -15t54.5 -41t24.5 -51.5t7 -55.5q0 -92 -72 -164t-176 -110l-86 -33h-75l16 65h204q124 89 124 210q0 67 -28 107.5t-82 40.5q-51 0 -117 -39l-36 -24l-10 4l105 341h315l-20 -60h-302z" />
    <glyph glyph-name="six" unicode="6" horiz-adv-x="503" 
d="M507 715l1 -7q-136 -28 -240 -143.5t-132 -226.5l180 109q56 0 100 -56.5t44 -130.5q0 -195 -163 -250l-72 -25q-80 0 -127.5 56.5t-47.5 158.5q0 183 129.5 327.5t327.5 187.5zM292 401q-22 0 -41 -7.5t-60 -29.5l-57 -33q-19 -57 -19 -121q0 -84 39 -141t108 -64
q65 28 99 91t34 134q0 87 -31 129t-72 42z" />
    <glyph glyph-name="seven" unicode="7" horiz-adv-x="447" 
d="M40 400l10 60h408l4 -5l-401 -695h-56l1 5l419 635h-385z" />
    <glyph glyph-name="eight" unicode="8" horiz-adv-x="494" 
d="M213 -15q-69 0 -121 43t-52 114q0 139 204 218q-30 26 -41.5 37t-32.5 35t-29.5 47t-8.5 50q0 58 39 103.5t107 65.5l53 17q70 0 114 -33.5t44 -91.5q0 -39 -15 -71t-45.5 -57t-53 -39t-62.5 -34q6 -5 28.5 -22t32 -25.5t27.5 -26.5t26.5 -32t15.5 -34.5t7 -42.5
q0 -141 -195 -207zM110 164q0 -72 41 -118t96 -46q128 67 128 185q0 28 -10.5 52.5t-34.5 49t-37 35.5t-43 34q-140 -82 -140 -192zM423 568q0 56 -30.5 92t-93.5 40q-102 -44 -102 -146q0 -39 26 -76t84 -85q116 66 116 175z" />
    <glyph glyph-name="nine" unicode="9" horiz-adv-x="498" 
d="M6 -255l-1 7q136 28 240 143.5t132 226.5l-180 -109q-56 0 -100 56.5t-44 130.5q0 195 163 250l72 25q80 0 127.5 -56.5t47.5 -158.5q0 -183 -129.5 -327.5t-327.5 -187.5zM251 455q-65 -28 -99 -91t-34 -134q0 -87 31 -129t72 -42q22 0 41 7.5t60 29.5l57 33
q19 57 19 121q0 84 -39 141t-108 64z" />
    <glyph glyph-name="colon" unicode=":" horiz-adv-x="211" 
d="M34 46l12 39l62 4l23 -4l-4 -46l-11 -40l-62 -4l-24 4z" />
    <glyph glyph-name="semicolon" unicode=";" horiz-adv-x="218" 
d="M33 -138l-3 1l83 135l-35 -2l-21 4l4 48l13 37l58 4l26 -4l-3 -44l-14 -41z" />
    <glyph glyph-name="question" unicode="?" horiz-adv-x="211" 
d="M34 46l12 39l62 4l23 -4l-4 -46l-11 -40l-62 -4l-24 4z" />
    <glyph glyph-name="A" unicode="A" horiz-adv-x="671" 
d="M486 10l-18 243h-248l-135 -243l89 -5v-5h-199v5l90 5l382 683l51 13l54 -696l89 -5v-5h-245v5zM438 645l-213 -382h242z" />
    <glyph glyph-name="B" unicode="B" horiz-adv-x="539" 
d="M147 15h171q136 68 136 194q0 67 -43 111.5t-123 44.5h-89zM294 0h-304v5l90 5l102 680l-84 5v5h239q90 0 138.5 -35.5t48.5 -99.5q0 -69 -46 -116.5t-128 -64.5l-43 -9q106 -1 164 -46.5t58 -111.5q0 -131 -169 -193zM307 690h-59l-47 -315h64q56 0 120 50.5t65 130.5
q-1 68 -34 101t-109 33z" />
    <glyph glyph-name="C" unicode="C" horiz-adv-x="577" 
d="M354 694q-107 -38 -168 -140t-61 -234q0 -150 57 -228t157 -92q32 13 78 36t60 34l77 131h6l-34 -151l-208 -68q-115 0 -191.5 84t-76.5 214q0 83 27 160t88.5 145t150.5 104l72 29q120 0 199 -59l-5 -154h-6l-39 121q-72 56 -183 68z" />
    <glyph glyph-name="D" unicode="D" horiz-adv-x="629" 
d="M283 0h-293v5l90 5l102 680l-84 5v5h249q117 0 197 -82t80 -203q0 -81 -25 -155.5t-86.5 -140t-151.5 -94.5zM147 16h171q106 51 168.5 158.5t62.5 240.5q0 132 -57.5 203.5t-151.5 71.5h-92z" />
    <glyph glyph-name="E" unicode="E" horiz-adv-x="548" 
d="M-10 0v5l90 5l102 680l-84 5v5h480l-28 -176h-5l-35 166h-262l-48 -319h142l58 114h5l-38 -237h-5l-22 113h-141l-53 -351h266l88 170h5l-29 -180h-486z" />
    <glyph glyph-name="F" unicode="F" horiz-adv-x="528" 
d="M146 10l123 -5v-5h-279v5l90 5l102 680l-84 5v5h480l-28 -176h-5l-35 166h-262l-49 -328h142l58 114h5l-38 -237h-5l-22 113h-141z" />
    <glyph glyph-name="G" unicode="G" horiz-adv-x="624" 
d="M541 50l-224 -68q-117 0 -192 86t-75 217q0 134 69.5 247t208.5 161l73 25q123 0 209 -77l-16 -137h-5l-28 98q-75 81 -209 92q-98 -41 -162.5 -135.5t-64.5 -233.5q0 -154 60 -234.5t159 -90.5q34 12 74.5 32t59.5 32l35 236l-83 5v5h209v-5l-60 -5z" />
    <glyph glyph-name="H" unicode="H" horiz-adv-x="660" 
d="M710 700v-5l-85 -5l-102 -680l89 -5v-5h-245v5l90 5l52 349h-311l-52 -349l89 -5v-5h-245v5l90 5l102 680l-84 5v5h235v-5l-85 -5l-48 -321h311l48 321l-84 5v5h235z" />
    <glyph glyph-name="I" unicode="I" horiz-adv-x="283" 
d="M333 700v-5l-85 -5l-102 -680l89 -5v-5h-245v5l90 5l102 680l-84 5v5h235z" />
    <glyph glyph-name="J" unicode="J" horiz-adv-x="276" 
d="M87 36l98 654l-84 5v5h235v-5l-85 -5l-93 -624q-2 -15 -5.5 -28.5t-9 -26.5t-10 -22.5t-13 -21.5t-12.5 -18t-15 -18t-14 -15.5t-15 -15t-13 -13.5l-63 -62h-58l11 70h109q25 59 37 141z" />
    <glyph glyph-name="K" unicode="K" horiz-adv-x="650" 
d="M248 690l-47 -314l361 314l-89 5v5h192v-5l-81 -5l-360 -311l51 -6l264 -363l69 -5v-5h-149l-259 369l-54 -359l89 -5v-5h-245v5l90 5l102 680l-84 5v5h235v-5z" />
    <glyph glyph-name="L" unicode="L" horiz-adv-x="515" 
d="M248 690l-102 -680h246l98 170h5l-39 -180h-466v5l90 5l102 680l-84 5v5h235v-5z" />
    <glyph glyph-name="M" unicode="M" horiz-adv-x="852" 
d="M405 61l337 639h160v-5l-85 -5l-102 -680l89 -5v-5h-245v5l90 5l102 674l-359 -684h-40l-149 682l-106 -672l89 -5v-5h-196v5l90 5l109 680l-84 5v5h161z" />
    <glyph glyph-name="N" unicode="N" horiz-adv-x="667" 
d="M526 99l94 591l-89 5v5h196v-5l-90 -5l-111 -690h-31l-291 681l-107 -671l89 -5v-5h-196v5l90 5l109 680l-84 5v5h162z" />
    <glyph glyph-name="O" unicode="O" horiz-adv-x="640" 
d="M125 295q0 -136 56.5 -210t147.5 -84q101 26 166 144.5t65 259.5q0 136 -56.5 210.5t-147.5 84.5q-100 -23 -165.5 -143t-65.5 -262zM313 695l70 23q106 0 179 -83t73 -210q0 -86 -25 -165t-86.5 -150t-151.5 -103l-70 -25q-106 0 -179 83t-73 210q0 63 14.5 125
t44.5 120.5t82.5 105t121.5 69.5z" />
    <glyph glyph-name="P" unicode="P" horiz-adv-x="514" 
d="M195 336h139q31 14 53.5 27.5t48.5 37t39.5 58t13.5 78.5q0 153 -147 153h-94zM379 346l-73 -25h-113l-47 -311l123 -5v-5h-279v5l90 5l102 680l-84 5v5h289q84 0 130.5 -41.5t46.5 -106.5q0 -71 -44 -122t-141 -84z" />
    <glyph glyph-name="Q" unicode="Q" horiz-adv-x="640" 
d="M313 695l70 23q106 0 179 -83t73 -210q0 -86 -25 -165t-86.5 -150t-151.5 -103l-70 -25q-106 0 -179 83t-73 210q0 63 14.5 125t44.5 120.5t82.5 105t121.5 69.5zM125 295q0 -136 56.5 -210t147.5 -84q101 26 166 144.5t65 259.5q0 136 -56.5 210.5t-147.5 84.5
q-100 -23 -165.5 -143t-65.5 -262zM302 -18l102 -22l121 -120l49 -5v-5h-131z" />
    <glyph glyph-name="R" unicode="R" horiz-adv-x="614" 
d="M304 343h-108l-50 -333l103 -5v-5h-259v5l90 5l102 680l-84 5v5h289q84 0 130.5 -40t46.5 -103q0 -139 -184 -192l-76 -22l88 -37l145 -296l42 -4v-6h-115zM198 358h138q34 16 54 27t46.5 33t39.5 53t13 71q0 148 -147 148h-94z" />
    <glyph glyph-name="S" unicode="S" horiz-adv-x="449" 
d="M224 688l83 30q101 0 162 -42l-24 -151h-5l-13 107q-50 54 -164 62q-113 -32 -113 -127q0 -27 5.5 -47t23 -40.5t30.5 -32t48 -40.5l103 -84q35 -28 52 -58.5t17 -78.5q0 -56 -39 -107.5t-106 -71.5l-79 -25q-115 0 -190 58l32 145l6 -1v-88q27 -32 86 -59.5t116 -31.5
q115 35 115 149q0 48 -21 80.5t-77 76.5l-95 75q-80 63 -80 140q0 53 32 96t95 66z" />
    <glyph glyph-name="T" unicode="T" horiz-adv-x="528" 
d="M207 10l101 680h-164l-69 -160h-5l27 170h496l-26 -170h-5l-26 160h-162l-101 -680l103 -5v-5h-259v5z" />
    <glyph glyph-name="U" unicode="U" horiz-adv-x="605" 
d="M225 690l-70 -465q-15 -99 27 -155t146 -56q72 29 111.5 76t54.5 146l74 454l-89 5v5h196v-5l-90 -5l-73 -453q-16 -95 -54 -150t-125 -83l-61 -20q-219 0 -185 225l72 481l-84 5v5h235v-5z" />
    <glyph glyph-name="V" unicode="V" horiz-adv-x="637" 
d="M322 5l-53 -15l-105 700l-89 5v5h245v-5l-90 -5l96 -637l277 637l-91 5v5h200v-5l-90 -5z" />
    <glyph glyph-name="W" unicode="W" horiz-adv-x="931" 
d="M585 -10l-72 483l-191 -468l-53 -15l-105 700l-89 5v5h245v-5l-90 -5l96 -637l182 447l-28 190l-69 5v5h235v-5l-100 -5l96 -637l255 637l-89 5v5h198v-5l-90 -5l-279 -685z" />
    <glyph glyph-name="X" unicode="X" horiz-adv-x="651" 
d="M160 5v-5h-180v5l70 5l269 330l-163 350l-64 5v5h224v-5l-85 -5l136 -298l243 298l-84 5v5h170v-5l-65 -5l-256 -314l171 -366l59 -5v-5h-225v5l90 5l-144 314l-255 -314z" />
    <glyph glyph-name="Y" unicode="Y" horiz-adv-x="594" 
d="M219 690l137 -378l234 378l-91 5v5h170v-5l-60 -5l-246 -392l-44 -288l89 -5v-5h-245v5l90 5l42 279l-151 401l-69 5v5h234v-5z" />
    <glyph glyph-name="Z" unicode="Z" horiz-adv-x="513" 
d="M393 10l89 180h5l-25 -190h-457l-10 10l478 680h-299l-92 -176h-5l29 186h432l10 -11l-472 -679h317z" />
    <glyph glyph-name="underscore" unicode="_" horiz-adv-x="383" 
d="M50 267l3 20h305l-3 -20h-305z" />
    <glyph glyph-name="a" unicode="a" horiz-adv-x="439" 
d="M90 197q0 -109 79 -163l125 109l46 261q-59 36 -112 36q-68 -38 -103 -101t-35 -142zM402 439l-75 -425l99 74l3 -3l-117 -100l-42 25l23 126l-158 -151q-100 49 -100 170q0 91 52.5 170t142.5 121l62 29q20 0 56 -12t54 -24z" />
    <glyph glyph-name="b" unicode="b" horiz-adv-x="431" 
d="M155 686l-96 -28l-1 5l151 54l7 -5l-63 -356l141 119q52 -11 84.5 -53t32.5 -118q0 -86 -45 -164t-125 -116l-83 -39q-59 8 -118 46zM258 429l-106 -82l-50 -281q22 -23 53.5 -35.5t54.5 -12.5q141 57 141 249q0 129 -93 162z" />
    <glyph glyph-name="c" unicode="c" horiz-adv-x="391" 
d="M233 16l-43 -31q-54 0 -102 51.5t-48 137.5q0 179 204 275l55 26q38 -5 87 -37l-34 -51q-40 28 -112 55q-140 -73 -140 -224q0 -83 33.5 -129.5t83.5 -60.5q64 29 137 80l4 -5q-20 -15 -64.5 -45.5t-60.5 -41.5z" />
    <glyph glyph-name="d" unicode="d" horiz-adv-x="466" 
d="M322 -15l-42 25l23 126l-154 -151q-46 21 -77.5 69t-31.5 107q0 92 54.5 170t147.5 115l73 29q11 -1 46 -14l39 225l-96 -28l-1 5l151 54l7 -5l-124 -698l99 74l3 -3zM188 37l116 106l46 262q-58 33 -112 35q-68 -34 -103 -96t-35 -142q0 -106 88 -165z" />
    <glyph glyph-name="e" unicode="e" horiz-adv-x="402" 
d="M362 301l-264 -82q0 -149 123 -192q99 58 125 77l5 -6q-58 -43 -118 -83l-46 -30q-58 8 -102.5 58t-44.5 131q0 92 54.5 166t151.5 111l58 23q78 -18 78 -99q0 -38 -20 -74zM252 449q-151 -75 -154 -223l202 70q16 31 16 67q0 70 -64 86z" />
    <glyph glyph-name="f" unicode="f" horiz-adv-x="252" 
d="M63 460h64l9 45q21 106 79 145l97 65h55l-10 -60h-124q-23 -38 -35 -109l-15 -86h100l-1 -5h-100l-86 -490q-16 -98 -80 -138l-96 -62h-45l11 60h116q19 30 32 105l92 525h-64z" />
    <glyph glyph-name="g" unicode="g" horiz-adv-x="433" 
d="M124 -235h-114l10 55h173q25 22 50 71t33 95l27 149l-154 -150q-109 64 -109 174q0 92 54 170.5t147 116.5l71 29q55 -6 101 -33l-85 -478q-12 -62 -117 -137zM100 207q0 -107 87 -169l117 105l46 259q-60 36 -112 38q-138 -75 -138 -233z" />
    <glyph glyph-name="h" unicode="h" horiz-adv-x="464" 
d="M158 351l-62 -351h-56l121 686l-96 -28l-1 5l151 54l7 -5l-63 -354l166 117q52 0 73.5 -26t13.5 -70l-65 -365l99 74l3 -3l-117 -100l-42 25l62 344q13 74 -48 74q-32 0 -105 -49z" />
    <glyph glyph-name="i" unicode="i" horiz-adv-x="243" 
d="M157 652l16 33l24 5l41 -5v-40l-17 -35l-22 -5l-46 5zM98 -15l-42 25l76 429l-95 -36l-2 5l155 67l4 -3l-81 -460l99 76l3 -3z" />
    <glyph glyph-name="j" unicode="j" horiz-adv-x="239" 
d="M163 652l16 33l24 5l41 -5v-40l-17 -35l-22 -5l-46 5zM49 -70l89 509l-95 -36l-2 5l155 67l4 -3l-89 -507q-18 -96 -79 -136l-97 -64h-45l12 60h118q16 32 29 105z" />
    <glyph glyph-name="k" unicode="k" horiz-adv-x="421" 
d="M297 -15l-37 15l-115 274l-49 -274h-56l121 686l-96 -28l-1 5l151 54l7 -5l-77 -434l213 187h58l-12 -70h-107l-142 -120l62 -19l104 -238l86 68l3 -4z" />
    <glyph glyph-name="l" unicode="l" horiz-adv-x="235" 
d="M92 -15l-42 25l119 676l-96 -28l-1 5l151 54l7 -5l-123 -698l99 74l3 -3z" />
    <glyph glyph-name="m" unicode="m" horiz-adv-x="709" 
d="M577 -15l-42 25l62 344q11 74 -43 74q-30 0 -100 -49l-41 -28l-62 -351h-56l62 354q13 74 -43 74q-30 0 -100 -49l-41 -28l-62 -351h-56l77 439l-95 -36l-2 5l155 67l4 -3l-20 -114l161 117q95 0 82 -96l-3 -21l161 117q49 0 69 -25.5t13 -70.5l-65 -365l99 74l3 -3z" />
    <glyph glyph-name="n" unicode="n" horiz-adv-x="479" 
d="M173 351l-62 -351h-56l77 439l-95 -36l-2 5l155 67l4 -3l-20 -114l166 117q52 0 73.5 -26t13.5 -70l-65 -365l99 74l3 -3l-117 -100l-42 25l62 344q13 74 -48 74q-32 0 -105 -49z" />
    <glyph glyph-name="o" unicode="o" horiz-adv-x="432" 
d="M233 449q-37 -12 -64 -40.5t-41.5 -66t-21 -75t-6.5 -74.5q0 -87 32.5 -131t84.5 -52q49 16 81 63.5t43 97.5t11 102q0 90 -31 129t-88 47zM213 448l61 27q57 0 97.5 -48t40.5 -135q0 -93 -45.5 -168.5t-127.5 -111.5l-61 -27q-57 0 -97.5 50.5t-40.5 138.5
q0 92 45.5 165t127.5 109z" />
    <glyph glyph-name="p" unicode="p" horiz-adv-x="451" 
d="M270 428l-98 -81l-49 -282q22 -22 52.5 -34t54.5 -13q141 60 141 249q0 69 -27.5 110t-73.5 51zM113 11l-42 -241h-56l117 669l-95 -36l-2 5l155 67l4 -3l-20 -115l135 118q54 -6 88 -50t34 -121q0 -86 -43 -161.5t-121 -114.5l-87 -43q-25 3 -67 26z" />
    <glyph glyph-name="q" unicode="q" horiz-adv-x="428" 
d="M304 143l46 260q-69 36 -112 37q-68 -38 -103 -101t-35 -142q0 -48 22.5 -90t65.5 -67zM238 -230l64 363l-152 -148q-110 52 -110 170q0 93 54 173.5t146 117.5l72 29q21 -2 52.5 -12t48.5 -20l-119 -673h-56z" />
    <glyph glyph-name="r" unicode="r" horiz-adv-x="347" 
d="M111 0h-57l78 439l-95 -36l-2 5l155 67l4 -3l-37 -211l139 204h61l-15 -75h-83l-105 -147z" />
    <glyph glyph-name="s" unicode="s" horiz-adv-x="331" 
d="M193 15l-100 -30q-47 23 -88 56l46 44q51 -41 114 -73q33 10 50.5 32t17.5 47q0 30 -11 50.5t-41 50.5l-68 68q-37 37 -37 85q0 33 27.5 62.5t82.5 47.5l63 20q37 -5 77 -31l-37 -49q-48 33 -110 53q-25 -9 -39 -30t-14 -44q0 -43 36 -79l70 -70q32 -32 44 -55.5
t12 -54.5q0 -71 -95 -100z" />
    <glyph glyph-name="t" unicode="t" horiz-adv-x="265" 
d="M102 14l119 75l3 -4l-137 -100l-42 25l78 445h-64l1 5h64l12 62l60 64h6l-22 -126h100l-1 -5h-100z" />
    <glyph glyph-name="u" unicode="u" horiz-adv-x="474" 
d="M352 14l104 69l3 -3l-130 -95l-34 25l16 94l-163 -119q-102 0 -86 93l65 366l-95 -32l-2 5l154 58l4 -3l-67 -377q-11 -63 38 -63q23 0 45.5 10.5t67.5 41.5l40 28l61 348h57z" />
    <glyph glyph-name="v" unicode="v" horiz-adv-x="393" 
d="M92 439l-95 -36l-2 5l153 67l4 -3l2 -456l214 349l-66 79l55 31l31 -34l-14 -91l-222 -358l-51 14z" />
    <glyph glyph-name="w" unicode="w" horiz-adv-x="600" 
d="M358 -8l-50 14l-5 230l-152 -244l-50 14l-9 433l-95 -36l-2 5l153 67l4 -3l2 -456l149 240l-4 183l60 26l2 -449l214 347l-66 81l55 31l31 -34l-14 -91z" />
    <glyph glyph-name="x" unicode="x" horiz-adv-x="430" 
d="M323 16l99 72l3 -3l-122 -98l-34 20l-64 201l-154 -213h-56l14 65h77l116 157l-67 222l-100 -34l-2 5l144 63l6 -3l62 -203l138 198h52l-13 -65h-74l-100 -142z" />
    <glyph glyph-name="y" unicode="y" horiz-adv-x="412" 
d="M95 441l-98 -38l-2 5l155 69l4 -3l54 -449l181 341l-68 78l55 31l31 -34l-3 -80l-186 -350l-138 -247l-81 1l16 65h79l110 187l-54 -13z" />
    <glyph glyph-name="z" unicode="z" horiz-adv-x="377" 
d="M78 79l248 -28l33 55l5 -2l-51 -111l-277 34l-35 -32l-6 5l323 388l-215 31l-29 -57l-4 2l41 111l250 -33l29 26l7 -3z" />
    <glyph glyph-name="Agrave" unicode="&#xc0;" horiz-adv-x="671" 
d="M486 10l-18 243h-248l-135 -243l89 -5v-5h-199v5l90 5l382 683l51 13l54 -696l89 -5v-5h-245v5zM438 645l-213 -382h242z" />
    <glyph glyph-name="Aacute" unicode="&#xc1;" horiz-adv-x="671" 
d="M486 10l-18 243h-248l-135 -243l89 -5v-5h-199v5l90 5l382 683l51 13l54 -696l89 -5v-5h-245v5zM438 645l-213 -382h242z" />
    <glyph glyph-name="Acircumflex" unicode="&#xc2;" horiz-adv-x="671" 
d="M486 10l-18 243h-248l-135 -243l89 -5v-5h-199v5l90 5l382 683l51 13l54 -696l89 -5v-5h-245v5zM438 645l-213 -382h242z" />
    <glyph glyph-name="Atilde" unicode="&#xc3;" horiz-adv-x="671" 
d="M486 10l-18 243h-248l-135 -243l89 -5v-5h-199v5l90 5l382 683l51 13l54 -696l89 -5v-5h-245v5zM438 645l-213 -382h242z" />
    <glyph glyph-name="Adieresis" unicode="&#xc4;" horiz-adv-x="671" 
d="M486 10l-18 243h-248l-135 -243l89 -5v-5h-199v5l90 5l382 683l51 13l54 -696l89 -5v-5h-245v5zM438 645l-213 -382h242z" />
    <glyph glyph-name="Aring" unicode="&#xc5;" horiz-adv-x="671" 
d="M486 10l-18 243h-248l-135 -243l89 -5v-5h-199v5l90 5l382 683l51 13l54 -696l89 -5v-5h-245v5zM438 645l-213 -382h242z" />
    <glyph glyph-name="AE" unicode="&#xc6;" horiz-adv-x="1219" 
d="M486 10l-18 243h-248l-135 -243l89 -5v-5h-199v5l90 5l382 683l51 13l54 -696l89 -5v-5h-245v5zM438 645l-213 -382h242zM661 0v5l90 5l102 680l-84 5v5h480l-28 -176h-5l-35 166h-262l-48 -319h142l58 114h5l-38 -237h-5l-22 113h-141l-53 -351h266l88 170h5l-29 -180
h-486z" />
    <glyph glyph-name="Ccedilla" unicode="&#xc7;" horiz-adv-x="577" 
d="M354 694q-107 -38 -168 -140t-61 -234q0 -150 57 -228t157 -92q32 13 78 36t60 34l77 131h6l-34 -151l-208 -68q-115 0 -191.5 84t-76.5 214q0 83 27 160t88.5 145t150.5 104l72 29q120 0 199 -59l-5 -154h-6l-39 121q-72 56 -183 68z" />
    <glyph glyph-name="Egrave" unicode="&#xc8;" horiz-adv-x="548" 
d="M-10 0v5l90 5l102 680l-84 5v5h480l-28 -176h-5l-35 166h-262l-48 -319h142l58 114h5l-38 -237h-5l-22 113h-141l-53 -351h266l88 170h5l-29 -180h-486z" />
    <glyph glyph-name="Eacute" unicode="&#xc9;" horiz-adv-x="548" 
d="M-10 0v5l90 5l102 680l-84 5v5h480l-28 -176h-5l-35 166h-262l-48 -319h142l58 114h5l-38 -237h-5l-22 113h-141l-53 -351h266l88 170h5l-29 -180h-486z" />
    <glyph glyph-name="Ecircumflex" unicode="&#xca;" horiz-adv-x="548" 
d="M-10 0v5l90 5l102 680l-84 5v5h480l-28 -176h-5l-35 166h-262l-48 -319h142l58 114h5l-38 -237h-5l-22 113h-141l-53 -351h266l88 170h5l-29 -180h-486z" />
    <glyph glyph-name="Edieresis" unicode="&#xcb;" horiz-adv-x="548" 
d="M-10 0v5l90 5l102 680l-84 5v5h480l-28 -176h-5l-35 166h-262l-48 -319h142l58 114h5l-38 -237h-5l-22 113h-141l-53 -351h266l88 170h5l-29 -180h-486z" />
    <glyph glyph-name="Igrave" unicode="&#xcc;" horiz-adv-x="283" 
d="M333 700v-5l-85 -5l-102 -680l89 -5v-5h-245v5l90 5l102 680l-84 5v5h235z" />
    <glyph glyph-name="Iacute" unicode="&#xcd;" horiz-adv-x="283" 
d="M333 700v-5l-85 -5l-102 -680l89 -5v-5h-245v5l90 5l102 680l-84 5v5h235z" />
    <glyph glyph-name="Icircumflex" unicode="&#xce;" horiz-adv-x="283" 
d="M333 700v-5l-85 -5l-102 -680l89 -5v-5h-245v5l90 5l102 680l-84 5v5h235z" />
    <glyph glyph-name="Idieresis" unicode="&#xcf;" horiz-adv-x="283" 
d="M333 700v-5l-85 -5l-102 -680l89 -5v-5h-245v5l90 5l102 680l-84 5v5h235z" />
    <glyph glyph-name="Eth" unicode="&#xd0;" horiz-adv-x="629" 
d="M283 0h-293v5l90 5l102 680l-84 5v5h249q117 0 197 -82t80 -203q0 -81 -25 -155.5t-86.5 -140t-151.5 -94.5zM147 16h171q106 51 168.5 158.5t62.5 240.5q0 132 -57.5 203.5t-151.5 71.5h-92z" />
    <glyph glyph-name="Ntilde" unicode="&#xd1;" horiz-adv-x="667" 
d="M526 99l94 591l-89 5v5h196v-5l-90 -5l-111 -690h-31l-291 681l-107 -671l89 -5v-5h-196v5l90 5l109 680l-84 5v5h162z" />
    <glyph glyph-name="Ograve" unicode="&#xd2;" horiz-adv-x="640" 
d="M125 295q0 -136 56.5 -210t147.5 -84q101 26 166 144.5t65 259.5q0 136 -56.5 210.5t-147.5 84.5q-100 -23 -165.5 -143t-65.5 -262zM313 695l70 23q106 0 179 -83t73 -210q0 -86 -25 -165t-86.5 -150t-151.5 -103l-70 -25q-106 0 -179 83t-73 210q0 63 14.5 125
t44.5 120.5t82.5 105t121.5 69.5z" />
    <glyph glyph-name="Oacute" unicode="&#xd3;" horiz-adv-x="640" 
d="M125 295q0 -136 56.5 -210t147.5 -84q101 26 166 144.5t65 259.5q0 136 -56.5 210.5t-147.5 84.5q-100 -23 -165.5 -143t-65.5 -262zM313 695l70 23q106 0 179 -83t73 -210q0 -86 -25 -165t-86.5 -150t-151.5 -103l-70 -25q-106 0 -179 83t-73 210q0 63 14.5 125
t44.5 120.5t82.5 105t121.5 69.5z" />
    <glyph glyph-name="Ocircumflex" unicode="&#xd4;" horiz-adv-x="640" 
d="M125 295q0 -136 56.5 -210t147.5 -84q101 26 166 144.5t65 259.5q0 136 -56.5 210.5t-147.5 84.5q-100 -23 -165.5 -143t-65.5 -262zM313 695l70 23q106 0 179 -83t73 -210q0 -86 -25 -165t-86.5 -150t-151.5 -103l-70 -25q-106 0 -179 83t-73 210q0 63 14.5 125
t44.5 120.5t82.5 105t121.5 69.5z" />
    <glyph glyph-name="Otilde" unicode="&#xd5;" horiz-adv-x="640" 
d="M125 295q0 -136 56.5 -210t147.5 -84q101 26 166 144.5t65 259.5q0 136 -56.5 210.5t-147.5 84.5q-100 -23 -165.5 -143t-65.5 -262zM313 695l70 23q106 0 179 -83t73 -210q0 -86 -25 -165t-86.5 -150t-151.5 -103l-70 -25q-106 0 -179 83t-73 210q0 63 14.5 125
t44.5 120.5t82.5 105t121.5 69.5z" />
    <glyph glyph-name="Odieresis" unicode="&#xd6;" horiz-adv-x="640" 
d="M125 295q0 -136 56.5 -210t147.5 -84q101 26 166 144.5t65 259.5q0 136 -56.5 210.5t-147.5 84.5q-100 -23 -165.5 -143t-65.5 -262zM313 695l70 23q106 0 179 -83t73 -210q0 -86 -25 -165t-86.5 -150t-151.5 -103l-70 -25q-106 0 -179 83t-73 210q0 63 14.5 125
t44.5 120.5t82.5 105t121.5 69.5z" />
    <glyph glyph-name="Oslash" unicode="&#xd8;" horiz-adv-x="640" 
d="M125 295q0 -136 56.5 -210t147.5 -84q101 26 166 144.5t65 259.5q0 136 -56.5 210.5t-147.5 84.5q-100 -23 -165.5 -143t-65.5 -262zM313 695l70 23q106 0 179 -83t73 -210q0 -86 -25 -165t-86.5 -150t-151.5 -103l-70 -25q-106 0 -179 83t-73 210q0 63 14.5 125
t44.5 120.5t82.5 105t121.5 69.5z" />
    <glyph glyph-name="Ugrave" unicode="&#xd9;" horiz-adv-x="605" 
d="M225 690l-70 -465q-15 -99 27 -155t146 -56q72 29 111.5 76t54.5 146l74 454l-89 5v5h196v-5l-90 -5l-73 -453q-16 -95 -54 -150t-125 -83l-61 -20q-219 0 -185 225l72 481l-84 5v5h235v-5z" />
    <glyph glyph-name="Uacute" unicode="&#xda;" horiz-adv-x="605" 
d="M225 690l-70 -465q-15 -99 27 -155t146 -56q72 29 111.5 76t54.5 146l74 454l-89 5v5h196v-5l-90 -5l-73 -453q-16 -95 -54 -150t-125 -83l-61 -20q-219 0 -185 225l72 481l-84 5v5h235v-5z" />
    <glyph glyph-name="Ucircumflex" unicode="&#xdb;" horiz-adv-x="605" 
d="M225 690l-70 -465q-15 -99 27 -155t146 -56q72 29 111.5 76t54.5 146l74 454l-89 5v5h196v-5l-90 -5l-73 -453q-16 -95 -54 -150t-125 -83l-61 -20q-219 0 -185 225l72 481l-84 5v5h235v-5z" />
    <glyph glyph-name="Udieresis" unicode="&#xdc;" horiz-adv-x="605" 
d="M225 690l-70 -465q-15 -99 27 -155t146 -56q72 29 111.5 76t54.5 146l74 454l-89 5v5h196v-5l-90 -5l-73 -453q-16 -95 -54 -150t-125 -83l-61 -20q-219 0 -185 225l72 481l-84 5v5h235v-5z" />
    <glyph glyph-name="Yacute" unicode="&#xdd;" horiz-adv-x="594" 
d="M219 690l137 -378l234 378l-91 5v5h170v-5l-60 -5l-246 -392l-44 -288l89 -5v-5h-245v5l90 5l42 279l-151 401l-69 5v5h234v-5z" />
    <glyph glyph-name="Thorn" unicode="&#xde;" horiz-adv-x="514" 
d="M195 336h139q31 14 53.5 27.5t48.5 37t39.5 58t13.5 78.5q0 153 -147 153h-94zM379 346l-73 -25h-113l-47 -311l123 -5v-5h-279v5l90 5l102 680l-84 5v5h289q84 0 130.5 -41.5t46.5 -106.5q0 -71 -44 -122t-141 -84z" />
    <glyph glyph-name="germandbls" unicode="&#xdf;" horiz-adv-x="662" 
d="M193 15l-100 -30q-47 23 -88 56l46 44q51 -41 114 -73q33 10 50.5 32t17.5 47q0 30 -11 50.5t-41 50.5l-68 68q-37 37 -37 85q0 33 27.5 62.5t82.5 47.5l63 20q37 -5 77 -31l-37 -49q-48 33 -110 53q-25 -9 -39 -30t-14 -44q0 -43 36 -79l70 -70q32 -32 44 -55.5
t12 -54.5q0 -71 -95 -100zM524 15l-100 -30q-47 23 -88 56l46 44q51 -41 114 -73q33 10 50.5 32t17.5 47q0 30 -11 50.5t-41 50.5l-68 68q-37 37 -37 85q0 33 27.5 62.5t82.5 47.5l63 20q37 -5 77 -31l-37 -49q-48 33 -110 53q-25 -9 -39 -30t-14 -44q0 -43 36 -79l70 -70
q32 -32 44 -55.5t12 -54.5q0 -71 -95 -100z" />
    <glyph glyph-name="agrave" unicode="&#xe0;" horiz-adv-x="439" 
d="M90 197q0 -109 79 -163l125 109l46 261q-59 36 -112 36q-68 -38 -103 -101t-35 -142zM402 439l-75 -425l99 74l3 -3l-117 -100l-42 25l23 126l-158 -151q-100 49 -100 170q0 91 52.5 170t142.5 121l62 29q20 0 56 -12t54 -24z" />
    <glyph glyph-name="aacute" unicode="&#xe1;" horiz-adv-x="439" 
d="M90 197q0 -109 79 -163l125 109l46 261q-59 36 -112 36q-68 -38 -103 -101t-35 -142zM402 439l-75 -425l99 74l3 -3l-117 -100l-42 25l23 126l-158 -151q-100 49 -100 170q0 91 52.5 170t142.5 121l62 29q20 0 56 -12t54 -24z" />
    <glyph glyph-name="acircumflex" unicode="&#xe2;" horiz-adv-x="439" 
d="M90 197q0 -109 79 -163l125 109l46 261q-59 36 -112 36q-68 -38 -103 -101t-35 -142zM402 439l-75 -425l99 74l3 -3l-117 -100l-42 25l23 126l-158 -151q-100 49 -100 170q0 91 52.5 170t142.5 121l62 29q20 0 56 -12t54 -24z" />
    <glyph glyph-name="atilde" unicode="&#xe3;" horiz-adv-x="439" 
d="M90 197q0 -109 79 -163l125 109l46 261q-59 36 -112 36q-68 -38 -103 -101t-35 -142zM402 439l-75 -425l99 74l3 -3l-117 -100l-42 25l23 126l-158 -151q-100 49 -100 170q0 91 52.5 170t142.5 121l62 29q20 0 56 -12t54 -24z" />
    <glyph glyph-name="adieresis" unicode="&#xe4;" horiz-adv-x="439" 
d="M90 197q0 -109 79 -163l125 109l46 261q-59 36 -112 36q-68 -38 -103 -101t-35 -142zM402 439l-75 -425l99 74l3 -3l-117 -100l-42 25l23 126l-158 -151q-100 49 -100 170q0 91 52.5 170t142.5 121l62 29q20 0 56 -12t54 -24z" />
    <glyph glyph-name="aring" unicode="&#xe5;" horiz-adv-x="439" 
d="M90 197q0 -109 79 -163l125 109l46 261q-59 36 -112 36q-68 -38 -103 -101t-35 -142zM402 439l-75 -425l99 74l3 -3l-117 -100l-42 25l23 126l-158 -151q-100 49 -100 170q0 91 52.5 170t142.5 121l62 29q20 0 56 -12t54 -24z" />
    <glyph glyph-name="ae" unicode="&#xe6;" horiz-adv-x="841" 
d="M90 197q0 -109 79 -163l125 109l46 261q-59 36 -112 36q-68 -38 -103 -101t-35 -142zM402 439l-75 -425l99 74l3 -3l-117 -100l-42 25l23 126l-158 -151q-100 49 -100 170q0 91 52.5 170t142.5 121l62 29q20 0 56 -12t54 -24zM801 301l-264 -82q0 -149 123 -192
q99 58 125 77l5 -6q-57 -43 -118 -83l-46 -30q-58 8 -102.5 58t-44.5 131q0 92 54.5 166t151.5 111l58 23q78 -18 78 -99q0 -38 -20 -74zM691 449q-151 -75 -154 -223l202 70q16 31 16 67q0 70 -64 86z" />
    <glyph glyph-name="ccedilla" unicode="&#xe7;" horiz-adv-x="391" 
d="M233 16l-43 -31q-54 0 -102 51.5t-48 137.5q0 179 204 275l55 26q38 -5 87 -37l-34 -51q-40 28 -112 55q-140 -73 -140 -224q0 -83 33.5 -129.5t83.5 -60.5q64 29 137 80l4 -5q-20 -15 -64.5 -45.5t-60.5 -41.5z" />
    <glyph glyph-name="egrave" unicode="&#xe8;" horiz-adv-x="402" 
d="M362 301l-264 -82q0 -149 123 -192q99 58 125 77l5 -6q-58 -43 -118 -83l-46 -30q-58 8 -102.5 58t-44.5 131q0 92 54.5 166t151.5 111l58 23q78 -18 78 -99q0 -38 -20 -74zM252 449q-151 -75 -154 -223l202 70q16 31 16 67q0 70 -64 86z" />
    <glyph glyph-name="eacute" unicode="&#xe9;" horiz-adv-x="402" 
d="M362 301l-264 -82q0 -149 123 -192q99 58 125 77l5 -6q-58 -43 -118 -83l-46 -30q-58 8 -102.5 58t-44.5 131q0 92 54.5 166t151.5 111l58 23q78 -18 78 -99q0 -38 -20 -74zM252 449q-151 -75 -154 -223l202 70q16 31 16 67q0 70 -64 86z" />
    <glyph glyph-name="ecircumflex" unicode="&#xea;" horiz-adv-x="402" 
d="M362 301l-264 -82q0 -149 123 -192q99 58 125 77l5 -6q-58 -43 -118 -83l-46 -30q-58 8 -102.5 58t-44.5 131q0 92 54.5 166t151.5 111l58 23q78 -18 78 -99q0 -38 -20 -74zM252 449q-151 -75 -154 -223l202 70q16 31 16 67q0 70 -64 86z" />
    <glyph glyph-name="edieresis" unicode="&#xeb;" horiz-adv-x="402" 
d="M362 301l-264 -82q0 -149 123 -192q99 58 125 77l5 -6q-58 -43 -118 -83l-46 -30q-58 8 -102.5 58t-44.5 131q0 92 54.5 166t151.5 111l58 23q78 -18 78 -99q0 -38 -20 -74zM252 449q-151 -75 -154 -223l202 70q16 31 16 67q0 70 -64 86z" />
    <glyph glyph-name="igrave" unicode="&#xec;" horiz-adv-x="243" 
d="M157 652l16 33l24 5l41 -5v-40l-17 -35l-22 -5l-46 5zM98 -15l-42 25l76 429l-95 -36l-2 5l155 67l4 -3l-81 -460l99 76l3 -3z" />
    <glyph glyph-name="iacute" unicode="&#xed;" horiz-adv-x="243" 
d="M157 652l16 33l24 5l41 -5v-40l-17 -35l-22 -5l-46 5zM98 -15l-42 25l76 429l-95 -36l-2 5l155 67l4 -3l-81 -460l99 76l3 -3z" />
    <glyph glyph-name="icircumflex" unicode="&#xee;" horiz-adv-x="243" 
d="M157 652l16 33l24 5l41 -5v-40l-17 -35l-22 -5l-46 5zM98 -15l-42 25l76 429l-95 -36l-2 5l155 67l4 -3l-81 -460l99 76l3 -3z" />
    <glyph glyph-name="idieresis" unicode="&#xef;" horiz-adv-x="243" 
d="M157 652l16 33l24 5l41 -5v-40l-17 -35l-22 -5l-46 5zM98 -15l-42 25l76 429l-95 -36l-2 5l155 67l4 -3l-81 -460l99 76l3 -3z" />
    <glyph glyph-name="ntilde" unicode="&#xf1;" horiz-adv-x="479" 
d="M173 351l-62 -351h-56l77 439l-95 -36l-2 5l155 67l4 -3l-20 -114l166 117q52 0 73.5 -26t13.5 -70l-65 -365l99 74l3 -3l-117 -100l-42 25l62 344q13 74 -48 74q-32 0 -105 -49z" />
    <glyph glyph-name="ograve" unicode="&#xf2;" horiz-adv-x="432" 
d="M233 449q-37 -12 -64 -40.5t-41.5 -66t-21 -75t-6.5 -74.5q0 -87 32.5 -131t84.5 -52q49 16 81 63.5t43 97.5t11 102q0 90 -31 129t-88 47zM213 448l61 27q57 0 97.5 -48t40.5 -135q0 -93 -45.5 -168.5t-127.5 -111.5l-61 -27q-57 0 -97.5 50.5t-40.5 138.5
q0 92 45.5 165t127.5 109z" />
    <glyph glyph-name="oacute" unicode="&#xf3;" horiz-adv-x="432" 
d="M233 449q-37 -12 -64 -40.5t-41.5 -66t-21 -75t-6.5 -74.5q0 -87 32.5 -131t84.5 -52q49 16 81 63.5t43 97.5t11 102q0 90 -31 129t-88 47zM213 448l61 27q57 0 97.5 -48t40.5 -135q0 -93 -45.5 -168.5t-127.5 -111.5l-61 -27q-57 0 -97.5 50.5t-40.5 138.5
q0 92 45.5 165t127.5 109z" />
    <glyph glyph-name="ocircumflex" unicode="&#xf4;" horiz-adv-x="432" 
d="M233 449q-37 -12 -64 -40.5t-41.5 -66t-21 -75t-6.5 -74.5q0 -87 32.5 -131t84.5 -52q49 16 81 63.5t43 97.5t11 102q0 90 -31 129t-88 47zM213 448l61 27q57 0 97.5 -48t40.5 -135q0 -93 -45.5 -168.5t-127.5 -111.5l-61 -27q-57 0 -97.5 50.5t-40.5 138.5
q0 92 45.5 165t127.5 109z" />
    <glyph glyph-name="otilde" unicode="&#xf5;" horiz-adv-x="432" 
d="M233 449q-37 -12 -64 -40.5t-41.5 -66t-21 -75t-6.5 -74.5q0 -87 32.5 -131t84.5 -52q49 16 81 63.5t43 97.5t11 102q0 90 -31 129t-88 47zM213 448l61 27q57 0 97.5 -48t40.5 -135q0 -93 -45.5 -168.5t-127.5 -111.5l-61 -27q-57 0 -97.5 50.5t-40.5 138.5
q0 92 45.5 165t127.5 109z" />
    <glyph glyph-name="odieresis" unicode="&#xf6;" horiz-adv-x="432" 
d="M233 449q-37 -12 -64 -40.5t-41.5 -66t-21 -75t-6.5 -74.5q0 -87 32.5 -131t84.5 -52q49 16 81 63.5t43 97.5t11 102q0 90 -31 129t-88 47zM213 448l61 27q57 0 97.5 -48t40.5 -135q0 -93 -45.5 -168.5t-127.5 -111.5l-61 -27q-57 0 -97.5 50.5t-40.5 138.5
q0 92 45.5 165t127.5 109z" />
    <glyph glyph-name="oslash" unicode="&#xf8;" horiz-adv-x="432" 
d="M233 449q-37 -12 -64 -40.5t-41.5 -66t-21 -75t-6.5 -74.5q0 -87 32.5 -131t84.5 -52q49 16 81 63.5t43 97.5t11 102q0 90 -31 129t-88 47zM213 448l61 27q57 0 97.5 -48t40.5 -135q0 -93 -45.5 -168.5t-127.5 -111.5l-61 -27q-57 0 -97.5 50.5t-40.5 138.5
q0 92 45.5 165t127.5 109z" />
    <glyph glyph-name="ugrave" unicode="&#xf9;" horiz-adv-x="474" 
d="M352 14l104 69l3 -3l-130 -95l-34 25l16 94l-163 -119q-102 0 -86 93l65 366l-95 -32l-2 5l154 58l4 -3l-67 -377q-11 -63 38 -63q23 0 45.5 10.5t67.5 41.5l40 28l61 348h57z" />
    <glyph glyph-name="uacute" unicode="&#xfa;" horiz-adv-x="474" 
d="M352 14l104 69l3 -3l-130 -95l-34 25l16 94l-163 -119q-102 0 -86 93l65 366l-95 -32l-2 5l154 58l4 -3l-67 -377q-11 -63 38 -63q23 0 45.5 10.5t67.5 41.5l40 28l61 348h57z" />
    <glyph glyph-name="ucircumflex" unicode="&#xfb;" horiz-adv-x="474" 
d="M352 14l104 69l3 -3l-130 -95l-34 25l16 94l-163 -119q-102 0 -86 93l65 366l-95 -32l-2 5l154 58l4 -3l-67 -377q-11 -63 38 -63q23 0 45.5 10.5t67.5 41.5l40 28l61 348h57z" />
    <glyph glyph-name="udieresis" unicode="&#xfc;" horiz-adv-x="474" 
d="M352 14l104 69l3 -3l-130 -95l-34 25l16 94l-163 -119q-102 0 -86 93l65 366l-95 -32l-2 5l154 58l4 -3l-67 -377q-11 -63 38 -63q23 0 45.5 10.5t67.5 41.5l40 28l61 348h57z" />
    <glyph glyph-name="yacute" unicode="&#xfd;" horiz-adv-x="412" 
d="M95 441l-98 -38l-2 5l155 69l4 -3l54 -449l181 341l-68 78l55 31l31 -34l-3 -80l-186 -350l-138 -247l-81 1l16 65h79l110 187l-54 -13z" />
    <glyph glyph-name="thorn" unicode="&#xfe;" horiz-adv-x="451" 
d="M270 428l-98 -81l-49 -282q22 -22 52.5 -34t54.5 -13q141 60 141 249q0 69 -27.5 110t-73.5 51zM113 11l-42 -241h-56l117 669l-95 -36l-2 5l155 67l4 -3l-20 -115l135 118q54 -6 88 -50t34 -121q0 -86 -43 -161.5t-121 -114.5l-87 -43q-25 3 -67 26z" />
    <glyph glyph-name="ydieresis" unicode="&#xff;" horiz-adv-x="412" 
d="M95 441l-98 -38l-2 5l155 69l4 -3l54 -449l181 341l-68 78l55 31l31 -34l-3 -80l-186 -350l-138 -247l-81 1l16 65h79l110 187l-54 -13z" />
    <glyph glyph-name="Amacron" unicode="&#x100;" horiz-adv-x="671" 
d="M486 10l-18 243h-248l-135 -243l89 -5v-5h-199v5l90 5l382 683l51 13l54 -696l89 -5v-5h-245v5zM438 645l-213 -382h242z" />
    <glyph glyph-name="amacron" unicode="&#x101;" horiz-adv-x="439" 
d="M90 197q0 -109 79 -163l125 109l46 261q-59 36 -112 36q-68 -38 -103 -101t-35 -142zM402 439l-75 -425l99 74l3 -3l-117 -100l-42 25l23 126l-158 -151q-100 49 -100 170q0 91 52.5 170t142.5 121l62 29q20 0 56 -12t54 -24z" />
    <glyph glyph-name="Abreve" unicode="&#x102;" horiz-adv-x="671" 
d="M486 10l-18 243h-248l-135 -243l89 -5v-5h-199v5l90 5l382 683l51 13l54 -696l89 -5v-5h-245v5zM438 645l-213 -382h242z" />
    <glyph glyph-name="abreve" unicode="&#x103;" horiz-adv-x="439" 
d="M90 197q0 -109 79 -163l125 109l46 261q-59 36 -112 36q-68 -38 -103 -101t-35 -142zM402 439l-75 -425l99 74l3 -3l-117 -100l-42 25l23 126l-158 -151q-100 49 -100 170q0 91 52.5 170t142.5 121l62 29q20 0 56 -12t54 -24z" />
    <glyph glyph-name="Aogonek" unicode="&#x104;" horiz-adv-x="671" 
d="M486 10l-18 243h-248l-135 -243l89 -5v-5h-199v5l90 5l382 683l51 13l54 -696l89 -5v-5h-245v5zM438 645l-213 -382h242z" />
    <glyph glyph-name="aogonek" unicode="&#x105;" horiz-adv-x="439" 
d="M90 197q0 -109 79 -163l125 109l46 261q-59 36 -112 36q-68 -38 -103 -101t-35 -142zM402 439l-75 -425l99 74l3 -3l-117 -100l-42 25l23 126l-158 -151q-100 49 -100 170q0 91 52.5 170t142.5 121l62 29q20 0 56 -12t54 -24z" />
    <glyph glyph-name="Cacute" unicode="&#x106;" horiz-adv-x="577" 
d="M354 694q-107 -38 -168 -140t-61 -234q0 -150 57 -228t157 -92q32 13 78 36t60 34l77 131h6l-34 -151l-208 -68q-115 0 -191.5 84t-76.5 214q0 83 27 160t88.5 145t150.5 104l72 29q120 0 199 -59l-5 -154h-6l-39 121q-72 56 -183 68z" />
    <glyph glyph-name="cacute" unicode="&#x107;" horiz-adv-x="391" 
d="M233 16l-43 -31q-54 0 -102 51.5t-48 137.5q0 179 204 275l55 26q38 -5 87 -37l-34 -51q-40 28 -112 55q-140 -73 -140 -224q0 -83 33.5 -129.5t83.5 -60.5q64 29 137 80l4 -5q-20 -15 -64.5 -45.5t-60.5 -41.5z" />
    <glyph glyph-name="Ccircumflex" unicode="&#x108;" horiz-adv-x="577" 
d="M354 694q-107 -38 -168 -140t-61 -234q0 -150 57 -228t157 -92q32 13 78 36t60 34l77 131h6l-34 -151l-208 -68q-115 0 -191.5 84t-76.5 214q0 83 27 160t88.5 145t150.5 104l72 29q120 0 199 -59l-5 -154h-6l-39 121q-72 56 -183 68z" />
    <glyph glyph-name="ccircumflex" unicode="&#x109;" horiz-adv-x="391" 
d="M233 16l-43 -31q-54 0 -102 51.5t-48 137.5q0 179 204 275l55 26q38 -5 87 -37l-34 -51q-40 28 -112 55q-140 -73 -140 -224q0 -83 33.5 -129.5t83.5 -60.5q64 29 137 80l4 -5q-20 -15 -64.5 -45.5t-60.5 -41.5z" />
    <glyph glyph-name="Cdotaccent" unicode="&#x10a;" horiz-adv-x="577" 
d="M354 694q-107 -38 -168 -140t-61 -234q0 -150 57 -228t157 -92q32 13 78 36t60 34l77 131h6l-34 -151l-208 -68q-115 0 -191.5 84t-76.5 214q0 83 27 160t88.5 145t150.5 104l72 29q120 0 199 -59l-5 -154h-6l-39 121q-72 56 -183 68z" />
    <glyph glyph-name="cdotaccent" unicode="&#x10b;" horiz-adv-x="391" 
d="M233 16l-43 -31q-54 0 -102 51.5t-48 137.5q0 179 204 275l55 26q38 -5 87 -37l-34 -51q-40 28 -112 55q-140 -73 -140 -224q0 -83 33.5 -129.5t83.5 -60.5q64 29 137 80l4 -5q-20 -15 -64.5 -45.5t-60.5 -41.5z" />
    <glyph glyph-name="Ccaron" unicode="&#x10c;" horiz-adv-x="577" 
d="M354 694q-107 -38 -168 -140t-61 -234q0 -150 57 -228t157 -92q32 13 78 36t60 34l77 131h6l-34 -151l-208 -68q-115 0 -191.5 84t-76.5 214q0 83 27 160t88.5 145t150.5 104l72 29q120 0 199 -59l-5 -154h-6l-39 121q-72 56 -183 68z" />
    <glyph glyph-name="ccaron" unicode="&#x10d;" horiz-adv-x="391" 
d="M233 16l-43 -31q-54 0 -102 51.5t-48 137.5q0 179 204 275l55 26q38 -5 87 -37l-34 -51q-40 28 -112 55q-140 -73 -140 -224q0 -83 33.5 -129.5t83.5 -60.5q64 29 137 80l4 -5q-20 -15 -64.5 -45.5t-60.5 -41.5z" />
    <glyph glyph-name="Dcaron" unicode="&#x10e;" horiz-adv-x="629" 
d="M283 0h-293v5l90 5l102 680l-84 5v5h249q117 0 197 -82t80 -203q0 -81 -25 -155.5t-86.5 -140t-151.5 -94.5zM147 16h171q106 51 168.5 158.5t62.5 240.5q0 132 -57.5 203.5t-151.5 71.5h-92z" />
    <glyph glyph-name="dcaron" unicode="&#x10f;" horiz-adv-x="466" 
d="M322 -15l-42 25l23 126l-154 -151q-46 21 -77.5 69t-31.5 107q0 92 54.5 170t147.5 115l73 29q11 -1 46 -14l39 225l-96 -28l-1 5l151 54l7 -5l-124 -698l99 74l3 -3zM188 37l116 106l46 262q-58 33 -112 35q-68 -34 -103 -96t-35 -142q0 -106 88 -165z" />
    <glyph glyph-name="Dcroat" unicode="&#x110;" horiz-adv-x="629" 
d="M283 0h-293v5l90 5l102 680l-84 5v5h249q117 0 197 -82t80 -203q0 -81 -25 -155.5t-86.5 -140t-151.5 -94.5zM147 16h171q106 51 168.5 158.5t62.5 240.5q0 132 -57.5 203.5t-151.5 71.5h-92z" />
    <glyph glyph-name="dcroat" unicode="&#x111;" horiz-adv-x="466" 
d="M322 -15l-42 25l23 126l-154 -151q-46 21 -77.5 69t-31.5 107q0 92 54.5 170t147.5 115l73 29q11 -1 46 -14l39 225l-96 -28l-1 5l151 54l7 -5l-124 -698l99 74l3 -3zM188 37l116 106l46 262q-58 33 -112 35q-68 -34 -103 -96t-35 -142q0 -106 88 -165z" />
    <glyph glyph-name="Emacron" unicode="&#x112;" horiz-adv-x="548" 
d="M-10 0v5l90 5l102 680l-84 5v5h480l-28 -176h-5l-35 166h-262l-48 -319h142l58 114h5l-38 -237h-5l-22 113h-141l-53 -351h266l88 170h5l-29 -180h-486z" />
    <glyph glyph-name="emacron" unicode="&#x113;" horiz-adv-x="402" 
d="M362 301l-264 -82q0 -149 123 -192q99 58 125 77l5 -6q-58 -43 -118 -83l-46 -30q-58 8 -102.5 58t-44.5 131q0 92 54.5 166t151.5 111l58 23q78 -18 78 -99q0 -38 -20 -74zM252 449q-151 -75 -154 -223l202 70q16 31 16 67q0 70 -64 86z" />
    <glyph glyph-name="Ebreve" unicode="&#x114;" horiz-adv-x="548" 
d="M-10 0v5l90 5l102 680l-84 5v5h480l-28 -176h-5l-35 166h-262l-48 -319h142l58 114h5l-38 -237h-5l-22 113h-141l-53 -351h266l88 170h5l-29 -180h-486z" />
    <glyph glyph-name="ebreve" unicode="&#x115;" horiz-adv-x="402" 
d="M362 301l-264 -82q0 -149 123 -192q99 58 125 77l5 -6q-58 -43 -118 -83l-46 -30q-58 8 -102.5 58t-44.5 131q0 92 54.5 166t151.5 111l58 23q78 -18 78 -99q0 -38 -20 -74zM252 449q-151 -75 -154 -223l202 70q16 31 16 67q0 70 -64 86z" />
    <glyph glyph-name="Edotaccent" unicode="&#x116;" horiz-adv-x="548" 
d="M-10 0v5l90 5l102 680l-84 5v5h480l-28 -176h-5l-35 166h-262l-48 -319h142l58 114h5l-38 -237h-5l-22 113h-141l-53 -351h266l88 170h5l-29 -180h-486z" />
    <glyph glyph-name="edotaccent" unicode="&#x117;" horiz-adv-x="402" 
d="M362 301l-264 -82q0 -149 123 -192q99 58 125 77l5 -6q-58 -43 -118 -83l-46 -30q-58 8 -102.5 58t-44.5 131q0 92 54.5 166t151.5 111l58 23q78 -18 78 -99q0 -38 -20 -74zM252 449q-151 -75 -154 -223l202 70q16 31 16 67q0 70 -64 86z" />
    <glyph glyph-name="Eogonek" unicode="&#x118;" horiz-adv-x="548" 
d="M-10 0v5l90 5l102 680l-84 5v5h480l-28 -176h-5l-35 166h-262l-48 -319h142l58 114h5l-38 -237h-5l-22 113h-141l-53 -351h266l88 170h5l-29 -180h-486z" />
    <glyph glyph-name="eogonek" unicode="&#x119;" horiz-adv-x="402" 
d="M362 301l-264 -82q0 -149 123 -192q99 58 125 77l5 -6q-58 -43 -118 -83l-46 -30q-58 8 -102.5 58t-44.5 131q0 92 54.5 166t151.5 111l58 23q78 -18 78 -99q0 -38 -20 -74zM252 449q-151 -75 -154 -223l202 70q16 31 16 67q0 70 -64 86z" />
    <glyph glyph-name="Ecaron" unicode="&#x11a;" horiz-adv-x="548" 
d="M-10 0v5l90 5l102 680l-84 5v5h480l-28 -176h-5l-35 166h-262l-48 -319h142l58 114h5l-38 -237h-5l-22 113h-141l-53 -351h266l88 170h5l-29 -180h-486z" />
    <glyph glyph-name="ecaron" unicode="&#x11b;" horiz-adv-x="402" 
d="M362 301l-264 -82q0 -149 123 -192q99 58 125 77l5 -6q-58 -43 -118 -83l-46 -30q-58 8 -102.5 58t-44.5 131q0 92 54.5 166t151.5 111l58 23q78 -18 78 -99q0 -38 -20 -74zM252 449q-151 -75 -154 -223l202 70q16 31 16 67q0 70 -64 86z" />
    <glyph glyph-name="Gcircumflex" unicode="&#x11c;" horiz-adv-x="624" 
d="M541 50l-224 -68q-117 0 -192 86t-75 217q0 134 69.5 247t208.5 161l73 25q123 0 209 -77l-16 -137h-5l-28 98q-75 81 -209 92q-98 -41 -162.5 -135.5t-64.5 -233.5q0 -154 60 -234.5t159 -90.5q34 12 74.5 32t59.5 32l35 236l-83 5v5h209v-5l-60 -5z" />
    <glyph glyph-name="gcircumflex" unicode="&#x11d;" horiz-adv-x="433" 
d="M124 -235h-114l10 55h173q25 22 50 71t33 95l27 149l-154 -150q-109 64 -109 174q0 92 54 170.5t147 116.5l71 29q55 -6 101 -33l-85 -478q-12 -62 -117 -137zM100 207q0 -107 87 -169l117 105l46 259q-60 36 -112 38q-138 -75 -138 -233z" />
    <glyph glyph-name="Gbreve" unicode="&#x11e;" horiz-adv-x="624" 
d="M541 50l-224 -68q-117 0 -192 86t-75 217q0 134 69.5 247t208.5 161l73 25q123 0 209 -77l-16 -137h-5l-28 98q-75 81 -209 92q-98 -41 -162.5 -135.5t-64.5 -233.5q0 -154 60 -234.5t159 -90.5q34 12 74.5 32t59.5 32l35 236l-83 5v5h209v-5l-60 -5z" />
    <glyph glyph-name="gbreve" unicode="&#x11f;" horiz-adv-x="433" 
d="M124 -235h-114l10 55h173q25 22 50 71t33 95l27 149l-154 -150q-109 64 -109 174q0 92 54 170.5t147 116.5l71 29q55 -6 101 -33l-85 -478q-12 -62 -117 -137zM100 207q0 -107 87 -169l117 105l46 259q-60 36 -112 38q-138 -75 -138 -233z" />
    <glyph glyph-name="Gdotaccent" unicode="&#x120;" horiz-adv-x="624" 
d="M541 50l-224 -68q-117 0 -192 86t-75 217q0 134 69.5 247t208.5 161l73 25q123 0 209 -77l-16 -137h-5l-28 98q-75 81 -209 92q-98 -41 -162.5 -135.5t-64.5 -233.5q0 -154 60 -234.5t159 -90.5q34 12 74.5 32t59.5 32l35 236l-83 5v5h209v-5l-60 -5z" />
    <glyph glyph-name="gdotaccent" unicode="&#x121;" horiz-adv-x="433" 
d="M124 -235h-114l10 55h173q25 22 50 71t33 95l27 149l-154 -150q-109 64 -109 174q0 92 54 170.5t147 116.5l71 29q55 -6 101 -33l-85 -478q-12 -62 -117 -137zM100 207q0 -107 87 -169l117 105l46 259q-60 36 -112 38q-138 -75 -138 -233z" />
    <glyph glyph-name="Gcommaaccent" unicode="&#x122;" horiz-adv-x="624" 
d="M541 50l-224 -68q-117 0 -192 86t-75 217q0 134 69.5 247t208.5 161l73 25q123 0 209 -77l-16 -137h-5l-28 98q-75 81 -209 92q-98 -41 -162.5 -135.5t-64.5 -233.5q0 -154 60 -234.5t159 -90.5q34 12 74.5 32t59.5 32l35 236l-83 5v5h209v-5l-60 -5z" />
    <glyph glyph-name="gcommaaccent" unicode="&#x123;" horiz-adv-x="433" 
d="M124 -235h-114l10 55h173q25 22 50 71t33 95l27 149l-154 -150q-109 64 -109 174q0 92 54 170.5t147 116.5l71 29q55 -6 101 -33l-85 -478q-12 -62 -117 -137zM100 207q0 -107 87 -169l117 105l46 259q-60 36 -112 38q-138 -75 -138 -233z" />
    <glyph glyph-name="Hcircumflex" unicode="&#x124;" horiz-adv-x="660" 
d="M710 700v-5l-85 -5l-102 -680l89 -5v-5h-245v5l90 5l52 349h-311l-52 -349l89 -5v-5h-245v5l90 5l102 680l-84 5v5h235v-5l-85 -5l-48 -321h311l48 321l-84 5v5h235z" />
    <glyph glyph-name="hcircumflex" unicode="&#x125;" horiz-adv-x="464" 
d="M158 351l-62 -351h-56l121 686l-96 -28l-1 5l151 54l7 -5l-63 -354l166 117q52 0 73.5 -26t13.5 -70l-65 -365l99 74l3 -3l-117 -100l-42 25l62 344q13 74 -48 74q-32 0 -105 -49z" />
    <glyph glyph-name="Hbar" unicode="&#x126;" horiz-adv-x="660" 
d="M710 700v-5l-85 -5l-102 -680l89 -5v-5h-245v5l90 5l52 349h-311l-52 -349l89 -5v-5h-245v5l90 5l102 680l-84 5v5h235v-5l-85 -5l-48 -321h311l48 321l-84 5v5h235z" />
    <glyph glyph-name="hbar" unicode="&#x127;" horiz-adv-x="464" 
d="M158 351l-62 -351h-56l121 686l-96 -28l-1 5l151 54l7 -5l-63 -354l166 117q52 0 73.5 -26t13.5 -70l-65 -365l99 74l3 -3l-117 -100l-42 25l62 344q13 74 -48 74q-32 0 -105 -49z" />
    <glyph glyph-name="Itilde" unicode="&#x128;" horiz-adv-x="283" 
d="M333 700v-5l-85 -5l-102 -680l89 -5v-5h-245v5l90 5l102 680l-84 5v5h235z" />
    <glyph glyph-name="itilde" unicode="&#x129;" horiz-adv-x="243" 
d="M157 652l16 33l24 5l41 -5v-40l-17 -35l-22 -5l-46 5zM98 -15l-42 25l76 429l-95 -36l-2 5l155 67l4 -3l-81 -460l99 76l3 -3z" />
    <glyph glyph-name="Imacron" unicode="&#x12a;" horiz-adv-x="283" 
d="M333 700v-5l-85 -5l-102 -680l89 -5v-5h-245v5l90 5l102 680l-84 5v5h235z" />
    <glyph glyph-name="imacron" unicode="&#x12b;" horiz-adv-x="243" 
d="M157 652l16 33l24 5l41 -5v-40l-17 -35l-22 -5l-46 5zM98 -15l-42 25l76 429l-95 -36l-2 5l155 67l4 -3l-81 -460l99 76l3 -3z" />
    <glyph glyph-name="Ibreve" unicode="&#x12c;" horiz-adv-x="283" 
d="M333 700v-5l-85 -5l-102 -680l89 -5v-5h-245v5l90 5l102 680l-84 5v5h235z" />
    <glyph glyph-name="ibreve" unicode="&#x12d;" horiz-adv-x="243" 
d="M157 652l16 33l24 5l41 -5v-40l-17 -35l-22 -5l-46 5zM98 -15l-42 25l76 429l-95 -36l-2 5l155 67l4 -3l-81 -460l99 76l3 -3z" />
    <glyph glyph-name="Iogonek" unicode="&#x12e;" horiz-adv-x="283" 
d="M333 700v-5l-85 -5l-102 -680l89 -5v-5h-245v5l90 5l102 680l-84 5v5h235z" />
    <glyph glyph-name="iogonek" unicode="&#x12f;" horiz-adv-x="243" 
d="M157 652l16 33l24 5l41 -5v-40l-17 -35l-22 -5l-46 5zM98 -15l-42 25l76 429l-95 -36l-2 5l155 67l4 -3l-81 -460l99 76l3 -3z" />
    <glyph glyph-name="Idotaccent" unicode="&#x130;" horiz-adv-x="283" 
d="M333 700v-5l-85 -5l-102 -680l89 -5v-5h-245v5l90 5l102 680l-84 5v5h235z" />
    <glyph glyph-name="dotlessi" unicode="&#x131;" horiz-adv-x="243" 
d="M157 652l16 33l24 5l41 -5v-40l-17 -35l-22 -5l-46 5zM98 -15l-42 25l76 429l-95 -36l-2 5l155 67l4 -3l-81 -460l99 76l3 -3z" />
    <glyph glyph-name="IJ" unicode="&#x132;" horiz-adv-x="559" 
d="M333 700v-5l-85 -5l-102 -680l89 -5v-5h-245v5l90 5l102 680l-84 5v5h235zM370 36l98 654l-84 5v5h235v-5l-85 -5l-93 -624q-2 -15 -5.5 -28.5t-9 -26.5t-10 -22.5t-13 -21.5t-12.5 -18t-15 -18t-14 -15.5t-15 -15t-13 -13.5l-63 -62h-58l11 70h109q25 59 37 141z" />
    <glyph glyph-name="ij" unicode="&#x133;" horiz-adv-x="482" 
d="M157 652l16 33l24 5l41 -5v-40l-17 -35l-22 -5l-46 5zM98 -15l-42 25l76 429l-95 -36l-2 5l155 67l4 -3l-81 -460l99 76l3 -3zM406 652l16 33l24 5l41 -5v-40l-17 -35l-22 -5l-46 5zM292 -70l89 509l-95 -36l-2 5l155 67l4 -3l-89 -507q-18 -96 -79 -136l-97 -64h-45
l12 60h118q16 32 29 105z" />
    <glyph glyph-name="Jcircumflex" unicode="&#x134;" horiz-adv-x="276" 
d="M87 36l98 654l-84 5v5h235v-5l-85 -5l-93 -624q-2 -15 -5.5 -28.5t-9 -26.5t-10 -22.5t-13 -21.5t-12.5 -18t-15 -18t-14 -15.5t-15 -15t-13 -13.5l-63 -62h-58l11 70h109q25 59 37 141z" />
    <glyph glyph-name="jcircumflex" unicode="&#x135;" horiz-adv-x="239" 
d="M163 652l16 33l24 5l41 -5v-40l-17 -35l-22 -5l-46 5zM49 -70l89 509l-95 -36l-2 5l155 67l4 -3l-89 -507q-18 -96 -79 -136l-97 -64h-45l12 60h118q16 32 29 105z" />
    <glyph glyph-name="Kcommaaccent" unicode="&#x136;" horiz-adv-x="650" 
d="M248 690l-47 -314l361 314l-89 5v5h192v-5l-81 -5l-360 -311l51 -6l264 -363l69 -5v-5h-149l-259 369l-54 -359l89 -5v-5h-245v5l90 5l102 680l-84 5v5h235v-5z" />
    <glyph glyph-name="kcommaaccent" unicode="&#x137;" horiz-adv-x="421" 
d="M297 -15l-37 15l-115 274l-49 -274h-56l121 686l-96 -28l-1 5l151 54l7 -5l-77 -434l213 187h58l-12 -70h-107l-142 -120l62 -19l104 -238l86 68l3 -4z" />
    <glyph glyph-name="kgreenlandic" unicode="&#x138;" horiz-adv-x="421" 
d="M297 -15l-37 15l-115 274l-49 -274h-56l121 686l-96 -28l-1 5l151 54l7 -5l-77 -434l213 187h58l-12 -70h-107l-142 -120l62 -19l104 -238l86 68l3 -4z" />
    <glyph glyph-name="Lacute" unicode="&#x139;" horiz-adv-x="515" 
d="M248 690l-102 -680h246l98 170h5l-39 -180h-466v5l90 5l102 680l-84 5v5h235v-5z" />
    <glyph glyph-name="lacute" unicode="&#x13a;" horiz-adv-x="235" 
d="M92 -15l-42 25l119 676l-96 -28l-1 5l151 54l7 -5l-123 -698l99 74l3 -3z" />
    <glyph glyph-name="Lcommaaccent" unicode="&#x13b;" horiz-adv-x="515" 
d="M248 690l-102 -680h246l98 170h5l-39 -180h-466v5l90 5l102 680l-84 5v5h235v-5z" />
    <glyph glyph-name="lcommaaccent" unicode="&#x13c;" horiz-adv-x="235" 
d="M92 -15l-42 25l119 676l-96 -28l-1 5l151 54l7 -5l-123 -698l99 74l3 -3z" />
    <glyph glyph-name="Lcaron" unicode="&#x13d;" horiz-adv-x="515" 
d="M248 690l-102 -680h246l98 170h5l-39 -180h-466v5l90 5l102 680l-84 5v5h235v-5z" />
    <glyph glyph-name="lcaron" unicode="&#x13e;" horiz-adv-x="235" 
d="M92 -15l-42 25l119 676l-96 -28l-1 5l151 54l7 -5l-123 -698l99 74l3 -3z" />
    <glyph glyph-name="Ldot" unicode="&#x13f;" horiz-adv-x="515" 
d="M248 690l-102 -680h246l98 170h5l-39 -180h-466v5l90 5l102 680l-84 5v5h235v-5z" />
    <glyph glyph-name="ldot" unicode="&#x140;" horiz-adv-x="235" 
d="M92 -15l-42 25l119 676l-96 -28l-1 5l151 54l7 -5l-123 -698l99 74l3 -3z" />
    <glyph glyph-name="Lslash" unicode="&#x141;" horiz-adv-x="515" 
d="M248 690l-102 -680h246l98 170h5l-39 -180h-466v5l90 5l102 680l-84 5v5h235v-5z" />
    <glyph glyph-name="lslash" unicode="&#x142;" horiz-adv-x="235" 
d="M92 -15l-42 25l119 676l-96 -28l-1 5l151 54l7 -5l-123 -698l99 74l3 -3z" />
    <glyph glyph-name="Nacute" unicode="&#x143;" horiz-adv-x="667" 
d="M526 99l94 591l-89 5v5h196v-5l-90 -5l-111 -690h-31l-291 681l-107 -671l89 -5v-5h-196v5l90 5l109 680l-84 5v5h162z" />
    <glyph glyph-name="nacute" unicode="&#x144;" horiz-adv-x="479" 
d="M173 351l-62 -351h-56l77 439l-95 -36l-2 5l155 67l4 -3l-20 -114l166 117q52 0 73.5 -26t13.5 -70l-65 -365l99 74l3 -3l-117 -100l-42 25l62 344q13 74 -48 74q-32 0 -105 -49z" />
    <glyph glyph-name="Ncommaaccent" unicode="&#x145;" horiz-adv-x="667" 
d="M526 99l94 591l-89 5v5h196v-5l-90 -5l-111 -690h-31l-291 681l-107 -671l89 -5v-5h-196v5l90 5l109 680l-84 5v5h162z" />
    <glyph glyph-name="ncommaaccent" unicode="&#x146;" horiz-adv-x="479" 
d="M173 351l-62 -351h-56l77 439l-95 -36l-2 5l155 67l4 -3l-20 -114l166 117q52 0 73.5 -26t13.5 -70l-65 -365l99 74l3 -3l-117 -100l-42 25l62 344q13 74 -48 74q-32 0 -105 -49z" />
    <glyph glyph-name="Ncaron" unicode="&#x147;" horiz-adv-x="667" 
d="M526 99l94 591l-89 5v5h196v-5l-90 -5l-111 -690h-31l-291 681l-107 -671l89 -5v-5h-196v5l90 5l109 680l-84 5v5h162z" />
    <glyph glyph-name="ncaron" unicode="&#x148;" horiz-adv-x="479" 
d="M173 351l-62 -351h-56l77 439l-95 -36l-2 5l155 67l4 -3l-20 -114l166 117q52 0 73.5 -26t13.5 -70l-65 -365l99 74l3 -3l-117 -100l-42 25l62 344q13 74 -48 74q-32 0 -105 -49z" />
    <glyph glyph-name="napostrophe" unicode="&#x149;" horiz-adv-x="479" 
d="M173 351l-62 -351h-56l77 439l-95 -36l-2 5l155 67l4 -3l-20 -114l166 117q52 0 73.5 -26t13.5 -70l-65 -365l99 74l3 -3l-117 -100l-42 25l62 344q13 74 -48 74q-32 0 -105 -49z" />
    <glyph glyph-name="Eng" unicode="&#x14a;" horiz-adv-x="667" 
d="M526 99l94 591l-89 5v5h196v-5l-90 -5l-111 -690h-31l-291 681l-107 -671l89 -5v-5h-196v5l90 5l109 680l-84 5v5h162z" />
    <glyph glyph-name="eng" unicode="&#x14b;" horiz-adv-x="479" 
d="M173 351l-62 -351h-56l77 439l-95 -36l-2 5l155 67l4 -3l-20 -114l166 117q52 0 73.5 -26t13.5 -70l-65 -365l99 74l3 -3l-117 -100l-42 25l62 344q13 74 -48 74q-32 0 -105 -49z" />
    <glyph glyph-name="Omacron" unicode="&#x14c;" horiz-adv-x="640" 
d="M125 295q0 -136 56.5 -210t147.5 -84q101 26 166 144.5t65 259.5q0 136 -56.5 210.5t-147.5 84.5q-100 -23 -165.5 -143t-65.5 -262zM313 695l70 23q106 0 179 -83t73 -210q0 -86 -25 -165t-86.5 -150t-151.5 -103l-70 -25q-106 0 -179 83t-73 210q0 63 14.5 125
t44.5 120.5t82.5 105t121.5 69.5z" />
    <glyph glyph-name="omacron" unicode="&#x14d;" horiz-adv-x="432" 
d="M233 449q-37 -12 -64 -40.5t-41.5 -66t-21 -75t-6.5 -74.5q0 -87 32.5 -131t84.5 -52q49 16 81 63.5t43 97.5t11 102q0 90 -31 129t-88 47zM213 448l61 27q57 0 97.5 -48t40.5 -135q0 -93 -45.5 -168.5t-127.5 -111.5l-61 -27q-57 0 -97.5 50.5t-40.5 138.5
q0 92 45.5 165t127.5 109z" />
    <glyph glyph-name="Obreve" unicode="&#x14e;" horiz-adv-x="640" 
d="M125 295q0 -136 56.5 -210t147.5 -84q101 26 166 144.5t65 259.5q0 136 -56.5 210.5t-147.5 84.5q-100 -23 -165.5 -143t-65.5 -262zM313 695l70 23q106 0 179 -83t73 -210q0 -86 -25 -165t-86.5 -150t-151.5 -103l-70 -25q-106 0 -179 83t-73 210q0 63 14.5 125
t44.5 120.5t82.5 105t121.5 69.5z" />
    <glyph glyph-name="obreve" unicode="&#x14f;" horiz-adv-x="432" 
d="M233 449q-37 -12 -64 -40.5t-41.5 -66t-21 -75t-6.5 -74.5q0 -87 32.5 -131t84.5 -52q49 16 81 63.5t43 97.5t11 102q0 90 -31 129t-88 47zM213 448l61 27q57 0 97.5 -48t40.5 -135q0 -93 -45.5 -168.5t-127.5 -111.5l-61 -27q-57 0 -97.5 50.5t-40.5 138.5
q0 92 45.5 165t127.5 109z" />
    <glyph glyph-name="Ohungarumlaut" unicode="&#x150;" horiz-adv-x="640" 
d="M125 295q0 -136 56.5 -210t147.5 -84q101 26 166 144.5t65 259.5q0 136 -56.5 210.5t-147.5 84.5q-100 -23 -165.5 -143t-65.5 -262zM313 695l70 23q106 0 179 -83t73 -210q0 -86 -25 -165t-86.5 -150t-151.5 -103l-70 -25q-106 0 -179 83t-73 210q0 63 14.5 125
t44.5 120.5t82.5 105t121.5 69.5z" />
    <glyph glyph-name="ohungarumlaut" unicode="&#x151;" horiz-adv-x="432" 
d="M233 449q-37 -12 -64 -40.5t-41.5 -66t-21 -75t-6.5 -74.5q0 -87 32.5 -131t84.5 -52q49 16 81 63.5t43 97.5t11 102q0 90 -31 129t-88 47zM213 448l61 27q57 0 97.5 -48t40.5 -135q0 -93 -45.5 -168.5t-127.5 -111.5l-61 -27q-57 0 -97.5 50.5t-40.5 138.5
q0 92 45.5 165t127.5 109z" />
    <glyph glyph-name="OE" unicode="&#x152;" horiz-adv-x="1188" 
d="M125 295q0 -136 56.5 -210t147.5 -84q101 26 166 144.5t65 259.5q0 136 -56.5 210.5t-147.5 84.5q-100 -23 -165.5 -143t-65.5 -262zM313 695l70 23q106 0 179 -83t73 -210q0 -86 -25 -165t-86.5 -150t-151.5 -103l-70 -25q-106 0 -179 83t-73 210q0 63 14.5 125
t44.5 120.5t82.5 105t121.5 69.5zM630 0v5l90 5l102 680l-84 5v5h480l-28 -176h-5l-35 166h-262l-48 -319h142l58 114h5l-38 -237h-5l-22 113h-141l-53 -351h266l88 170h5l-29 -180h-486z" />
    <glyph glyph-name="oe" unicode="&#x153;" horiz-adv-x="834" 
d="M233 449q-37 -12 -64 -40.5t-41.5 -66t-21 -75t-6.5 -74.5q0 -87 32.5 -131t84.5 -52q49 16 81 63.5t43 97.5t11 102q0 90 -31 129t-88 47zM213 448l61 27q57 0 97.5 -48t40.5 -135q0 -93 -45.5 -168.5t-127.5 -111.5l-61 -27q-57 0 -97.5 50.5t-40.5 138.5
q0 92 45.5 165t127.5 109zM794 301l-264 -82q0 -149 123 -192q99 58 125 77l5 -6q-57 -43 -118 -83l-46 -30q-58 8 -102.5 58t-44.5 131q0 92 54.5 166t151.5 111l58 23q78 -18 78 -99q0 -38 -20 -74zM684 449q-151 -75 -154 -223l202 70q16 31 16 67q0 70 -64 86z" />
    <glyph glyph-name="Racute" unicode="&#x154;" horiz-adv-x="614" 
d="M304 343h-108l-50 -333l103 -5v-5h-259v5l90 5l102 680l-84 5v5h289q84 0 130.5 -40t46.5 -103q0 -139 -184 -192l-76 -22l88 -37l145 -296l42 -4v-6h-115zM198 358h138q34 16 54 27t46.5 33t39.5 53t13 71q0 148 -147 148h-94z" />
    <glyph glyph-name="racute" unicode="&#x155;" horiz-adv-x="347" 
d="M111 0h-57l78 439l-95 -36l-2 5l155 67l4 -3l-37 -211l139 204h61l-15 -75h-83l-105 -147z" />
    <glyph glyph-name="Rcommaaccent" unicode="&#x156;" horiz-adv-x="614" 
d="M304 343h-108l-50 -333l103 -5v-5h-259v5l90 5l102 680l-84 5v5h289q84 0 130.5 -40t46.5 -103q0 -139 -184 -192l-76 -22l88 -37l145 -296l42 -4v-6h-115zM198 358h138q34 16 54 27t46.5 33t39.5 53t13 71q0 148 -147 148h-94z" />
    <glyph glyph-name="rcommaaccent" unicode="&#x157;" horiz-adv-x="347" 
d="M111 0h-57l78 439l-95 -36l-2 5l155 67l4 -3l-37 -211l139 204h61l-15 -75h-83l-105 -147z" />
    <glyph glyph-name="Rcaron" unicode="&#x158;" horiz-adv-x="614" 
d="M304 343h-108l-50 -333l103 -5v-5h-259v5l90 5l102 680l-84 5v5h289q84 0 130.5 -40t46.5 -103q0 -139 -184 -192l-76 -22l88 -37l145 -296l42 -4v-6h-115zM198 358h138q34 16 54 27t46.5 33t39.5 53t13 71q0 148 -147 148h-94z" />
    <glyph glyph-name="rcaron" unicode="&#x159;" horiz-adv-x="347" 
d="M111 0h-57l78 439l-95 -36l-2 5l155 67l4 -3l-37 -211l139 204h61l-15 -75h-83l-105 -147z" />
    <glyph glyph-name="Sacute" unicode="&#x15a;" horiz-adv-x="449" 
d="M224 688l83 30q101 0 162 -42l-24 -151h-5l-13 107q-50 54 -164 62q-113 -32 -113 -127q0 -27 5.5 -47t23 -40.5t30.5 -32t48 -40.5l103 -84q35 -28 52 -58.5t17 -78.5q0 -56 -39 -107.5t-106 -71.5l-79 -25q-115 0 -190 58l32 145l6 -1v-88q27 -32 86 -59.5t116 -31.5
q115 35 115 149q0 48 -21 80.5t-77 76.5l-95 75q-80 63 -80 140q0 53 32 96t95 66z" />
    <glyph glyph-name="sacute" unicode="&#x15b;" horiz-adv-x="331" 
d="M193 15l-100 -30q-47 23 -88 56l46 44q51 -41 114 -73q33 10 50.5 32t17.5 47q0 30 -11 50.5t-41 50.5l-68 68q-37 37 -37 85q0 33 27.5 62.5t82.5 47.5l63 20q37 -5 77 -31l-37 -49q-48 33 -110 53q-25 -9 -39 -30t-14 -44q0 -43 36 -79l70 -70q32 -32 44 -55.5
t12 -54.5q0 -71 -95 -100z" />
    <glyph glyph-name="Scircumflex" unicode="&#x15c;" horiz-adv-x="449" 
d="M224 688l83 30q101 0 162 -42l-24 -151h-5l-13 107q-50 54 -164 62q-113 -32 -113 -127q0 -27 5.5 -47t23 -40.5t30.5 -32t48 -40.5l103 -84q35 -28 52 -58.5t17 -78.5q0 -56 -39 -107.5t-106 -71.5l-79 -25q-115 0 -190 58l32 145l6 -1v-88q27 -32 86 -59.5t116 -31.5
q115 35 115 149q0 48 -21 80.5t-77 76.5l-95 75q-80 63 -80 140q0 53 32 96t95 66z" />
    <glyph glyph-name="scircumflex" unicode="&#x15d;" horiz-adv-x="331" 
d="M193 15l-100 -30q-47 23 -88 56l46 44q51 -41 114 -73q33 10 50.5 32t17.5 47q0 30 -11 50.5t-41 50.5l-68 68q-37 37 -37 85q0 33 27.5 62.5t82.5 47.5l63 20q37 -5 77 -31l-37 -49q-48 33 -110 53q-25 -9 -39 -30t-14 -44q0 -43 36 -79l70 -70q32 -32 44 -55.5
t12 -54.5q0 -71 -95 -100z" />
    <glyph glyph-name="Scedilla" unicode="&#x15e;" horiz-adv-x="449" 
d="M224 688l83 30q101 0 162 -42l-24 -151h-5l-13 107q-50 54 -164 62q-113 -32 -113 -127q0 -27 5.5 -47t23 -40.5t30.5 -32t48 -40.5l103 -84q35 -28 52 -58.5t17 -78.5q0 -56 -39 -107.5t-106 -71.5l-79 -25q-115 0 -190 58l32 145l6 -1v-88q27 -32 86 -59.5t116 -31.5
q115 35 115 149q0 48 -21 80.5t-77 76.5l-95 75q-80 63 -80 140q0 53 32 96t95 66z" />
    <glyph glyph-name="scedilla" unicode="&#x15f;" horiz-adv-x="331" 
d="M193 15l-100 -30q-47 23 -88 56l46 44q51 -41 114 -73q33 10 50.5 32t17.5 47q0 30 -11 50.5t-41 50.5l-68 68q-37 37 -37 85q0 33 27.5 62.5t82.5 47.5l63 20q37 -5 77 -31l-37 -49q-48 33 -110 53q-25 -9 -39 -30t-14 -44q0 -43 36 -79l70 -70q32 -32 44 -55.5
t12 -54.5q0 -71 -95 -100z" />
    <glyph glyph-name="Scaron" unicode="&#x160;" horiz-adv-x="449" 
d="M224 688l83 30q101 0 162 -42l-24 -151h-5l-13 107q-50 54 -164 62q-113 -32 -113 -127q0 -27 5.5 -47t23 -40.5t30.5 -32t48 -40.5l103 -84q35 -28 52 -58.5t17 -78.5q0 -56 -39 -107.5t-106 -71.5l-79 -25q-115 0 -190 58l32 145l6 -1v-88q27 -32 86 -59.5t116 -31.5
q115 35 115 149q0 48 -21 80.5t-77 76.5l-95 75q-80 63 -80 140q0 53 32 96t95 66z" />
    <glyph glyph-name="scaron" unicode="&#x161;" horiz-adv-x="331" 
d="M193 15l-100 -30q-47 23 -88 56l46 44q51 -41 114 -73q33 10 50.5 32t17.5 47q0 30 -11 50.5t-41 50.5l-68 68q-37 37 -37 85q0 33 27.5 62.5t82.5 47.5l63 20q37 -5 77 -31l-37 -49q-48 33 -110 53q-25 -9 -39 -30t-14 -44q0 -43 36 -79l70 -70q32 -32 44 -55.5
t12 -54.5q0 -71 -95 -100z" />
    <glyph glyph-name="Tcommaaccent" unicode="&#x162;" horiz-adv-x="528" 
d="M207 10l101 680h-164l-69 -160h-5l27 170h496l-26 -170h-5l-26 160h-162l-101 -680l103 -5v-5h-259v5z" />
    <glyph glyph-name="tcommaaccent" unicode="&#x163;" horiz-adv-x="265" 
d="M102 14l119 75l3 -4l-137 -100l-42 25l78 445h-64l1 5h64l12 62l60 64h6l-22 -126h100l-1 -5h-100z" />
    <glyph glyph-name="Tcaron" unicode="&#x164;" horiz-adv-x="528" 
d="M207 10l101 680h-164l-69 -160h-5l27 170h496l-26 -170h-5l-26 160h-162l-101 -680l103 -5v-5h-259v5z" />
    <glyph glyph-name="tcaron" unicode="&#x165;" horiz-adv-x="265" 
d="M102 14l119 75l3 -4l-137 -100l-42 25l78 445h-64l1 5h64l12 62l60 64h6l-22 -126h100l-1 -5h-100z" />
    <glyph glyph-name="Tbar" unicode="&#x166;" horiz-adv-x="528" 
d="M207 10l101 680h-164l-69 -160h-5l27 170h496l-26 -170h-5l-26 160h-162l-101 -680l103 -5v-5h-259v5z" />
    <glyph glyph-name="tbar" unicode="&#x167;" horiz-adv-x="265" 
d="M102 14l119 75l3 -4l-137 -100l-42 25l78 445h-64l1 5h64l12 62l60 64h6l-22 -126h100l-1 -5h-100z" />
    <glyph glyph-name="Utilde" unicode="&#x168;" horiz-adv-x="605" 
d="M225 690l-70 -465q-15 -99 27 -155t146 -56q72 29 111.5 76t54.5 146l74 454l-89 5v5h196v-5l-90 -5l-73 -453q-16 -95 -54 -150t-125 -83l-61 -20q-219 0 -185 225l72 481l-84 5v5h235v-5z" />
    <glyph glyph-name="utilde" unicode="&#x169;" horiz-adv-x="474" 
d="M352 14l104 69l3 -3l-130 -95l-34 25l16 94l-163 -119q-102 0 -86 93l65 366l-95 -32l-2 5l154 58l4 -3l-67 -377q-11 -63 38 -63q23 0 45.5 10.5t67.5 41.5l40 28l61 348h57z" />
    <glyph glyph-name="Umacron" unicode="&#x16a;" horiz-adv-x="605" 
d="M225 690l-70 -465q-15 -99 27 -155t146 -56q72 29 111.5 76t54.5 146l74 454l-89 5v5h196v-5l-90 -5l-73 -453q-16 -95 -54 -150t-125 -83l-61 -20q-219 0 -185 225l72 481l-84 5v5h235v-5z" />
    <glyph glyph-name="umacron" unicode="&#x16b;" horiz-adv-x="474" 
d="M352 14l104 69l3 -3l-130 -95l-34 25l16 94l-163 -119q-102 0 -86 93l65 366l-95 -32l-2 5l154 58l4 -3l-67 -377q-11 -63 38 -63q23 0 45.5 10.5t67.5 41.5l40 28l61 348h57z" />
    <glyph glyph-name="Ubreve" unicode="&#x16c;" horiz-adv-x="605" 
d="M225 690l-70 -465q-15 -99 27 -155t146 -56q72 29 111.5 76t54.5 146l74 454l-89 5v5h196v-5l-90 -5l-73 -453q-16 -95 -54 -150t-125 -83l-61 -20q-219 0 -185 225l72 481l-84 5v5h235v-5z" />
    <glyph glyph-name="ubreve" unicode="&#x16d;" horiz-adv-x="474" 
d="M352 14l104 69l3 -3l-130 -95l-34 25l16 94l-163 -119q-102 0 -86 93l65 366l-95 -32l-2 5l154 58l4 -3l-67 -377q-11 -63 38 -63q23 0 45.5 10.5t67.5 41.5l40 28l61 348h57z" />
    <glyph glyph-name="Uring" unicode="&#x16e;" horiz-adv-x="605" 
d="M225 690l-70 -465q-15 -99 27 -155t146 -56q72 29 111.5 76t54.5 146l74 454l-89 5v5h196v-5l-90 -5l-73 -453q-16 -95 -54 -150t-125 -83l-61 -20q-219 0 -185 225l72 481l-84 5v5h235v-5z" />
    <glyph glyph-name="uring" unicode="&#x16f;" horiz-adv-x="474" 
d="M352 14l104 69l3 -3l-130 -95l-34 25l16 94l-163 -119q-102 0 -86 93l65 366l-95 -32l-2 5l154 58l4 -3l-67 -377q-11 -63 38 -63q23 0 45.5 10.5t67.5 41.5l40 28l61 348h57z" />
    <glyph glyph-name="Uhungarumlaut" unicode="&#x170;" horiz-adv-x="605" 
d="M225 690l-70 -465q-15 -99 27 -155t146 -56q72 29 111.5 76t54.5 146l74 454l-89 5v5h196v-5l-90 -5l-73 -453q-16 -95 -54 -150t-125 -83l-61 -20q-219 0 -185 225l72 481l-84 5v5h235v-5z" />
    <glyph glyph-name="uhungarumlaut" unicode="&#x171;" horiz-adv-x="474" 
d="M352 14l104 69l3 -3l-130 -95l-34 25l16 94l-163 -119q-102 0 -86 93l65 366l-95 -32l-2 5l154 58l4 -3l-67 -377q-11 -63 38 -63q23 0 45.5 10.5t67.5 41.5l40 28l61 348h57z" />
    <glyph glyph-name="Uogonek" unicode="&#x172;" horiz-adv-x="605" 
d="M225 690l-70 -465q-15 -99 27 -155t146 -56q72 29 111.5 76t54.5 146l74 454l-89 5v5h196v-5l-90 -5l-73 -453q-16 -95 -54 -150t-125 -83l-61 -20q-219 0 -185 225l72 481l-84 5v5h235v-5z" />
    <glyph glyph-name="uogonek" unicode="&#x173;" horiz-adv-x="474" 
d="M352 14l104 69l3 -3l-130 -95l-34 25l16 94l-163 -119q-102 0 -86 93l65 366l-95 -32l-2 5l154 58l4 -3l-67 -377q-11 -63 38 -63q23 0 45.5 10.5t67.5 41.5l40 28l61 348h57z" />
    <glyph glyph-name="Wcircumflex" unicode="&#x174;" horiz-adv-x="931" 
d="M585 -10l-72 483l-191 -468l-53 -15l-105 700l-89 5v5h245v-5l-90 -5l96 -637l182 447l-28 190l-69 5v5h235v-5l-100 -5l96 -637l255 637l-89 5v5h198v-5l-90 -5l-279 -685z" />
    <glyph glyph-name="wcircumflex" unicode="&#x175;" horiz-adv-x="600" 
d="M358 -8l-50 14l-5 230l-152 -244l-50 14l-9 433l-95 -36l-2 5l153 67l4 -3l2 -456l149 240l-4 183l60 26l2 -449l214 347l-66 81l55 31l31 -34l-14 -91z" />
    <glyph glyph-name="Ycircumflex" unicode="&#x176;" horiz-adv-x="594" 
d="M219 690l137 -378l234 378l-91 5v5h170v-5l-60 -5l-246 -392l-44 -288l89 -5v-5h-245v5l90 5l42 279l-151 401l-69 5v5h234v-5z" />
    <glyph glyph-name="ycircumflex" unicode="&#x177;" horiz-adv-x="412" 
d="M95 441l-98 -38l-2 5l155 69l4 -3l54 -449l181 341l-68 78l55 31l31 -34l-3 -80l-186 -350l-138 -247l-81 1l16 65h79l110 187l-54 -13z" />
    <glyph glyph-name="Ydieresis" unicode="&#x178;" horiz-adv-x="594" 
d="M219 690l137 -378l234 378l-91 5v5h170v-5l-60 -5l-246 -392l-44 -288l89 -5v-5h-245v5l90 5l42 279l-151 401l-69 5v5h234v-5z" />
    <glyph glyph-name="Zacute" unicode="&#x179;" horiz-adv-x="513" 
d="M393 10l89 180h5l-25 -190h-457l-10 10l478 680h-299l-92 -176h-5l29 186h432l10 -11l-472 -679h317z" />
    <glyph glyph-name="zacute" unicode="&#x17a;" horiz-adv-x="377" 
d="M78 79l248 -28l33 55l5 -2l-51 -111l-277 34l-35 -32l-6 5l323 388l-215 31l-29 -57l-4 2l41 111l250 -33l29 26l7 -3z" />
    <glyph glyph-name="Zdotaccent" unicode="&#x17b;" horiz-adv-x="513" 
d="M393 10l89 180h5l-25 -190h-457l-10 10l478 680h-299l-92 -176h-5l29 186h432l10 -11l-472 -679h317z" />
    <glyph glyph-name="zdotaccent" unicode="&#x17c;" horiz-adv-x="377" 
d="M78 79l248 -28l33 55l5 -2l-51 -111l-277 34l-35 -32l-6 5l323 388l-215 31l-29 -57l-4 2l41 111l250 -33l29 26l7 -3z" />
    <glyph glyph-name="Zcaron" unicode="&#x17d;" horiz-adv-x="513" 
d="M393 10l89 180h5l-25 -190h-457l-10 10l478 680h-299l-92 -176h-5l29 186h432l10 -11l-472 -679h317z" />
    <glyph glyph-name="zcaron" unicode="&#x17e;" horiz-adv-x="377" 
d="M78 79l248 -28l33 55l5 -2l-51 -111l-277 34l-35 -32l-6 5l323 388l-215 31l-29 -57l-4 2l41 111l250 -33l29 26l7 -3z" />
    <glyph glyph-name="Aringacute" unicode="&#x1fa;" horiz-adv-x="671" 
d="M486 10l-18 243h-248l-135 -243l89 -5v-5h-199v5l90 5l382 683l51 13l54 -696l89 -5v-5h-245v5zM438 645l-213 -382h242z" />
    <glyph glyph-name="aringacute" unicode="&#x1fb;" horiz-adv-x="439" 
d="M90 197q0 -109 79 -163l125 109l46 261q-59 36 -112 36q-68 -38 -103 -101t-35 -142zM402 439l-75 -425l99 74l3 -3l-117 -100l-42 25l23 126l-158 -151q-100 49 -100 170q0 91 52.5 170t142.5 121l62 29q20 0 56 -12t54 -24z" />
    <glyph glyph-name="AEacute" unicode="&#x1fc;" horiz-adv-x="1219" 
d="M486 10l-18 243h-248l-135 -243l89 -5v-5h-199v5l90 5l382 683l51 13l54 -696l89 -5v-5h-245v5zM438 645l-213 -382h242zM661 0v5l90 5l102 680l-84 5v5h480l-28 -176h-5l-35 166h-262l-48 -319h142l58 114h5l-38 -237h-5l-22 113h-141l-53 -351h266l88 170h5l-29 -180
h-486z" />
    <glyph glyph-name="aeacute" unicode="&#x1fd;" horiz-adv-x="841" 
d="M90 197q0 -109 79 -163l125 109l46 261q-59 36 -112 36q-68 -38 -103 -101t-35 -142zM402 439l-75 -425l99 74l3 -3l-117 -100l-42 25l23 126l-158 -151q-100 49 -100 170q0 91 52.5 170t142.5 121l62 29q20 0 56 -12t54 -24zM801 301l-264 -82q0 -149 123 -192
q99 58 125 77l5 -6q-57 -43 -118 -83l-46 -30q-58 8 -102.5 58t-44.5 131q0 92 54.5 166t151.5 111l58 23q78 -18 78 -99q0 -38 -20 -74zM691 449q-151 -75 -154 -223l202 70q16 31 16 67q0 70 -64 86z" />
    <glyph glyph-name="Oslashacute" unicode="&#x1fe;" horiz-adv-x="640" 
d="M125 295q0 -136 56.5 -210t147.5 -84q101 26 166 144.5t65 259.5q0 136 -56.5 210.5t-147.5 84.5q-100 -23 -165.5 -143t-65.5 -262zM313 695l70 23q106 0 179 -83t73 -210q0 -86 -25 -165t-86.5 -150t-151.5 -103l-70 -25q-106 0 -179 83t-73 210q0 63 14.5 125
t44.5 120.5t82.5 105t121.5 69.5z" />
    <glyph glyph-name="oslashacute" unicode="&#x1ff;" horiz-adv-x="432" 
d="M233 449q-37 -12 -64 -40.5t-41.5 -66t-21 -75t-6.5 -74.5q0 -87 32.5 -131t84.5 -52q49 16 81 63.5t43 97.5t11 102q0 90 -31 129t-88 47zM213 448l61 27q57 0 97.5 -48t40.5 -135q0 -93 -45.5 -168.5t-127.5 -111.5l-61 -27q-57 0 -97.5 50.5t-40.5 138.5
q0 92 45.5 165t127.5 109z" />
    <glyph glyph-name="Scommaaccent" unicode="&#x218;" horiz-adv-x="449" 
d="M224 688l83 30q101 0 162 -42l-24 -151h-5l-13 107q-50 54 -164 62q-113 -32 -113 -127q0 -27 5.5 -47t23 -40.5t30.5 -32t48 -40.5l103 -84q35 -28 52 -58.5t17 -78.5q0 -56 -39 -107.5t-106 -71.5l-79 -25q-115 0 -190 58l32 145l6 -1v-88q27 -32 86 -59.5t116 -31.5
q115 35 115 149q0 48 -21 80.5t-77 76.5l-95 75q-80 63 -80 140q0 53 32 96t95 66z" />
    <glyph glyph-name="scommaaccent" unicode="&#x219;" horiz-adv-x="331" 
d="M193 15l-100 -30q-47 23 -88 56l46 44q51 -41 114 -73q33 10 50.5 32t17.5 47q0 30 -11 50.5t-41 50.5l-68 68q-37 37 -37 85q0 33 27.5 62.5t82.5 47.5l63 20q37 -5 77 -31l-37 -49q-48 33 -110 53q-25 -9 -39 -30t-14 -44q0 -43 36 -79l70 -70q32 -32 44 -55.5
t12 -54.5q0 -71 -95 -100z" />
    <glyph glyph-name="uni021A" unicode="&#x21a;" horiz-adv-x="528" 
d="M207 10l101 680h-164l-69 -160h-5l27 170h496l-26 -170h-5l-26 160h-162l-101 -680l103 -5v-5h-259v5z" />
    <glyph glyph-name="uni021B" unicode="&#x21b;" horiz-adv-x="474" 
d="M352 14l104 69l3 -3l-130 -95l-34 25l16 94l-163 -119q-102 0 -86 93l65 366l-95 -32l-2 5l154 58l4 -3l-67 -377q-11 -63 38 -63q23 0 45.5 10.5t67.5 41.5l40 28l61 348h57z" />
    <glyph glyph-name="uni0401" unicode="&#x401;" 
 />
    <glyph glyph-name="uni0403" unicode="&#x403;" 
 />
    <glyph glyph-name="uni0407" unicode="&#x407;" 
 />
    <glyph glyph-name="uni0409" unicode="&#x409;" 
 />
    <glyph glyph-name="uni040A" unicode="&#x40a;" 
 />
    <glyph glyph-name="uni040C" unicode="&#x40c;" 
 />
    <glyph glyph-name="uni040E" unicode="&#x40e;" 
 />
    <glyph glyph-name="uni0419" unicode="&#x419;" 
 />
    <glyph glyph-name="uni0439" unicode="&#x439;" 
 />
    <glyph glyph-name="uni0451" unicode="&#x451;" 
 />
    <glyph glyph-name="uni0453" unicode="&#x453;" 
 />
    <glyph glyph-name="uni0457" unicode="&#x457;" 
 />
    <glyph glyph-name="uni0459" unicode="&#x459;" 
 />
    <glyph glyph-name="uni045A" unicode="&#x45a;" 
 />
    <glyph glyph-name="uni045C" unicode="&#x45c;" 
 />
    <glyph glyph-name="uni045E" unicode="&#x45e;" 
 />
    <glyph glyph-name="uni0490" unicode="&#x490;" 
 />
    <glyph glyph-name="uni0491" unicode="&#x491;" 
 />
    <glyph glyph-name="Wgrave" unicode="&#x1e80;" horiz-adv-x="931" 
d="M585 -10l-72 483l-191 -468l-53 -15l-105 700l-89 5v5h245v-5l-90 -5l96 -637l182 447l-28 190l-69 5v5h235v-5l-100 -5l96 -637l255 637l-89 5v5h198v-5l-90 -5l-279 -685z" />
    <glyph glyph-name="wgrave" unicode="&#x1e81;" horiz-adv-x="600" 
d="M358 -8l-50 14l-5 230l-152 -244l-50 14l-9 433l-95 -36l-2 5l153 67l4 -3l2 -456l149 240l-4 183l60 26l2 -449l214 347l-66 81l55 31l31 -34l-14 -91z" />
    <glyph glyph-name="Wacute" unicode="&#x1e82;" horiz-adv-x="931" 
d="M585 -10l-72 483l-191 -468l-53 -15l-105 700l-89 5v5h245v-5l-90 -5l96 -637l182 447l-28 190l-69 5v5h235v-5l-100 -5l96 -637l255 637l-89 5v5h198v-5l-90 -5l-279 -685z" />
    <glyph glyph-name="wacute" unicode="&#x1e83;" horiz-adv-x="600" 
d="M358 -8l-50 14l-5 230l-152 -244l-50 14l-9 433l-95 -36l-2 5l153 67l4 -3l2 -456l149 240l-4 183l60 26l2 -449l214 347l-66 81l55 31l31 -34l-14 -91z" />
    <glyph glyph-name="Wdieresis" unicode="&#x1e84;" horiz-adv-x="931" 
d="M585 -10l-72 483l-191 -468l-53 -15l-105 700l-89 5v5h245v-5l-90 -5l96 -637l182 447l-28 190l-69 5v5h235v-5l-100 -5l96 -637l255 637l-89 5v5h198v-5l-90 -5l-279 -685z" />
    <glyph glyph-name="wdieresis" unicode="&#x1e85;" horiz-adv-x="600" 
d="M358 -8l-50 14l-5 230l-152 -244l-50 14l-9 433l-95 -36l-2 5l153 67l4 -3l2 -456l149 240l-4 183l60 26l2 -449l214 347l-66 81l55 31l31 -34l-14 -91z" />
    <glyph glyph-name="Ygrave" unicode="&#x1ef2;" horiz-adv-x="594" 
d="M219 690l137 -378l234 378l-91 5v5h170v-5l-60 -5l-246 -392l-44 -288l89 -5v-5h-245v5l90 5l42 279l-151 401l-69 5v5h234v-5z" />
    <glyph glyph-name="ygrave" unicode="&#x1ef3;" horiz-adv-x="412" 
d="M95 441l-98 -38l-2 5l155 69l4 -3l54 -449l181 341l-68 78l55 31l31 -34l-3 -80l-186 -350l-138 -247l-81 1l16 65h79l110 187l-54 -13z" />
    <glyph glyph-name="endash" unicode="&#x2013;" horiz-adv-x="383" 
d="M50 267l3 20h305l-3 -20h-305z" />
    <glyph glyph-name="emdash" unicode="&#x2014;" horiz-adv-x="383" 
d="M50 267l3 20h305l-3 -20h-305z" />
    <glyph glyph-name="ff" unicode="&#xfb00;" horiz-adv-x="504" 
d="M63 460h64l9 45q21 106 79 145l97 65h55l-10 -60h-124q-23 -38 -35 -109l-15 -86h100l-1 -5h-100l-86 -490q-16 -98 -80 -138l-96 -62h-45l11 60h116q19 30 32 105l92 525h-64zM315 460h64l9 45q21 106 79 145l97 65h55l-10 -60h-124q-23 -38 -35 -109l-15 -86h100l-1 -5
h-100l-86 -490q-16 -98 -80 -138l-96 -62h-45l11 60h116q19 30 32 105l92 525h-64z" />
    <glyph glyph-name="fi" unicode="&#xfb01;" horiz-adv-x="495" 
d="M63 460h64l9 45q21 106 79 145l97 65h55l-10 -60h-124q-23 -38 -35 -109l-15 -86h100l-1 -5h-100l-86 -490q-16 -98 -80 -138l-96 -62h-45l11 60h116q19 30 32 105l92 525h-64zM409 652l16 33l24 5l41 -5v-40l-17 -35l-22 -5l-46 5zM350 -15l-42 25l76 429l-95 -36l-2 5
l155 67l4 -3l-81 -460l99 76l3 -3z" />
  </font>
</defs>
</svg>
