<svg version="1" xmlns="http://www.w3.org/2000/svg" width="293.333" height="293.333" viewBox="0 0 220.000000 220.000000"><path d="M0 110v110h220V0H0v110zm196 0v88H22V22h174v88z"/><path d="M62 68.5V78h12.3c9.9 0 13 .4 16.5 2 6.8 3.1 9.2 11.2 5.2 17.7-3.6 5.9-6 6.8-20.7 7.1l-13.3.4V122.9l7.8.3 7.7.3 10 14.7 10 14.8h11.9c9.1 0 11.7-.3 11.3-1.3-.2-.7-5.3-8.2-11.2-16.7-5.9-8.5-10.3-15.6-9.7-15.8.5-.1 3-1.6 5.5-3.2 9.3-5.9 14.5-17 13.4-28.6-1.1-11.4-5.5-18.4-14.5-23.2C97.1 60.4 89 59 73.8 59H62v9.5z"/></svg>